<svg width="3861" height="171" viewBox="0 0 3861 171" fill="none" xmlns="http://www.w3.org/2000/svg">
    <mask id="mask0_355_863" style="mask-type:alpha" maskUnits="userSpaceOnUse" x="967" y="0" width="1926" height="171">
    <rect x="967.814" y="0.0643311" width="1925.19" height="169.99" fill="var(--fl-fgColor, #C4C4C4)"/>
    </mask>
    <g mask="url(#mask0_355_863)">
    <path d="M4199.04 -129.234H-43.9858V226.519H4199.04V-129.234Z" fill="var(--fl-fgColor, #158DCD)"/>
    <path d="M2032.98 226.603C1986.15 170.43 1960.56 99.5865 1960.66 26.4541C1960.38 -28.1992 1974.65 -81.9429 2002.01 -129.255H2545.6C2573.1 -82.0014 2587.39 -28.2184 2586.95 26.4541C2587.04 99.5947 2561.42 170.44 2514.57 226.603" fill="var(--fl-fgColor, white)"/>
    <path d="M2655.5 -129.171H2289.08V155.167H2655.5V-129.171Z" fill="var(--fl-fgColor, #0B1523)"/>
    <path d="M2885.85 -129.171H2238.37V184.604H2885.85V-129.171Z" fill="var(--fl-fgColor, #10527A)"/>
    <path d="M1818.99 228.56C1787.95 171.978 1774.76 107.331 1781.15 43.1132C1787.53 -21.1046 1813.19 -81.889 1854.76 -131.254H2330.66C2372.23 -81.889 2397.89 -21.1046 2404.27 43.1132C2410.66 107.331 2397.47 171.978 2366.43 228.56" fill="var(--fl-fgColor, #12699A)"/>
    <path d="M1433.02 -129.171C1441.53 -97.2747 1442.59 -63.8489 1436.13 -31.4762C1429.66 0.896545 1415.84 31.3494 1395.73 57.5293C1375.62 83.7092 1349.76 104.915 1320.15 119.508C1290.54 134.102 1257.97 141.691 1224.96 141.691C1191.95 141.691 1159.38 134.102 1129.76 119.508C1100.15 104.915 1074.29 83.7092 1054.18 57.5293C1034.07 31.3494 1020.25 0.896545 1013.79 -31.4762C1007.32 -63.8489 1008.39 -97.2747 1016.9 -129.171" fill="#var(--fl-fgColor, B3AE56)"/>
    <path d="M2787.24 226.519C2763.79 164.594 2760.55 96.8342 2777.98 32.9521C2795.41 -30.9299 2832.62 -87.6532 2884.27 -129.086H3275.83C3327.51 -87.6463 3364.73 -30.9047 3382.16 32.9993C3399.59 96.9034 3396.34 164.686 3372.86 226.624" fill="var(--fl-fgColor, #12699A)"/>
    <path d="M2365.78 -131.275C2446.47 -100.175 2503.73 -19.7535 2503.73 71.8412C2503.76 100.722 2497.97 129.314 2486.71 155.906C2475.44 182.497 2458.92 206.543 2438.14 226.603H2138.65C2117.88 206.543 2101.36 182.497 2090.09 155.906C2078.82 129.314 2073.03 100.722 2073.07 71.8412C2073.07 -19.7956 2130.32 -100.175 2211.02 -131.275H2365.78Z" fill="var(--fl-fgColor, #538C8A)"/>
    <path d="M2503.73 70.8943C2503.73 131.642 2478.58 188.602 2438.14 227.761H2138.65C2098.21 188.602 2073.07 131.642 2073.07 70.8943" fill="var(--fl-fgColor, #538C8A)"/>
    <path opacity="0.3" d="M2070.18 226.603C2102.7 174.207 2148.04 130.974 2201.93 100.994C2255.81 71.014 2316.46 55.2797 2378.12 55.2797C2439.78 55.2797 2500.43 71.014 2554.31 100.994C2608.2 130.974 2653.54 174.207 2686.06 226.603" fill="var(--fl-fgColor, #158DCD)"/>
    <path opacity="0.3" d="M1244.65 226.519C1226.54 192.011 1214.84 150.495 1214.84 108.791C1214.84 55.5373 1231.92 3.68857 1263.57 -39.1415C1295.21 -81.9716 1339.76 -113.526 1390.66 -129.171H1536.65C1571.8 -118.36 1604.12 -99.8995 1631.29 -75.1139C1658.46 -50.3284 1679.8 -19.8333 1693.79 14.1807C1707.77 48.1946 1714.05 84.8834 1712.17 121.611C1710.29 158.34 1700.29 194.195 1682.91 226.603" fill="var(--fl-fgColor, #ECDD65)"/>
    </g>
    <rect x="2893" y="0.0643311" width="967.349" height="169.99" fill="var(--fl-fgColor, #12699A)"/>
    <rect x="0.651367" y="0.0643311" width="967.349" height="169.99" fill="var(--fl-fgColor, #158DCD)"/>
</svg>
