<svg xmlns="http://www.w3.org/2000/svg">

    <!-- Icons -->

    <symbol id="arrow" viewBox="0 0 16 21">
        <path d="M2 19.5L13 10.5L2 1.5" stroke="var(--icon-arrowColour)" stroke-width="3" stroke-linecap="round"/>
    </symbol>

    <symbol id="icon-menu" viewBox="0 0 40 25" stroke="var(--fl-fgColor, #000)">
        <path d="M3.49316 3.19965H36.5451" stroke-width="5" stroke-linecap="round" stroke-linejoin="round"/>
        <path d="M3.49316 12.7184H36.5451" stroke-width="5" stroke-linecap="round" stroke-linejoin="round"/>
        <path d="M3.49316 22.2358H36.5451" stroke-width="5" stroke-linecap="round" stroke-linejoin="round"/>
    </symbol>

    <symbol id="toolkits" width="47" height="47" viewBox="0 0 47 47" fill="var(--fl-bgColor, #fff)">
        <path d="M23.6237 0.593517C18.3046 0.588353 13.1482 2.42798 9.03358 5.79885C4.91891 9.16973 2.10056 13.8632 1.05891 19.0794C0.0172458 24.2955 0.816735 29.7115 3.32111 34.4042C5.82549 39.0969 9.87976 42.7758 14.7929 44.8141C19.706 46.8523 25.174 47.1236 30.2648 45.5817C35.3555 44.0399 39.754 40.7803 42.7106 36.3586C45.6673 31.9368 46.9989 26.6266 46.4787 21.333C45.9585 16.0393 43.6187 11.0899 39.8579 7.32825C35.5522 3.02159 29.7136 0.599429 23.6237 0.593517ZM20.3433 42.959V33.9069C20.3391 33.5963 20.2488 33.2931 20.0824 33.0308C19.9227 32.7616 19.6871 32.5455 19.4051 32.4096C17.941 31.722 16.6702 30.682 15.7067 29.3828C14.7432 28.0835 14.1171 26.5655 13.8844 24.9648C13.6517 23.364 13.8196 21.7306 14.3733 20.2108C14.9269 18.6909 15.8489 17.3321 17.0567 16.2561V22.7424C17.0584 23.6119 17.4045 24.4453 18.0193 25.0601C18.6342 25.675 19.4676 26.0211 20.3371 26.0227H26.9041C27.7736 26.0211 28.607 25.675 29.2218 25.0601C29.8367 24.4453 30.1828 23.6119 30.1845 22.7424V16.2561C31.3915 17.3309 32.3141 18.6874 32.8702 20.205C33.4263 21.7225 33.5985 23.3539 33.3717 24.9541C33.1376 26.5569 32.5101 28.0767 31.5452 29.3777C30.5803 30.6787 29.308 31.7204 27.8422 32.4096C27.5596 32.5469 27.3224 32.7626 27.1588 33.0308C26.9943 33.2936 26.9061 33.5969 26.9041 33.9069V42.9652C24.7347 43.3566 22.5127 43.3566 20.3433 42.9652V42.959ZM30.2093 42.1078V34.8947C32.2843 33.7091 33.9937 31.9763 35.1511 29.8854C36.3085 27.7946 36.8695 25.426 36.7727 23.0382C36.6759 20.6503 35.9251 18.3349 34.6022 16.3446C33.2794 14.3543 31.4353 12.7656 29.2712 11.7518C29.0223 11.6301 28.7463 11.5745 28.4697 11.5903C28.1937 11.6094 27.9268 11.6969 27.6931 11.845C27.4574 11.9884 27.2644 12.1921 27.1339 12.4352C26.9982 12.6782 26.9276 12.9522 26.9289 13.2305V22.7486H20.3433V13.2118C20.3387 12.9355 20.2662 12.6645 20.1321 12.4228C19.9983 12.1816 19.8056 11.9782 19.5721 11.8316C19.3385 11.6849 19.0716 11.5998 18.7963 11.5841C18.5203 11.5669 18.2445 11.6204 17.9949 11.7394C15.8295 12.7532 13.9844 14.3425 12.661 16.3338C11.3376 18.325 10.5868 20.6416 10.4906 23.0306C10.3945 25.4196 10.9566 27.7891 12.1157 29.8802C13.2747 31.9714 14.9861 33.7039 17.0629 34.8885V42.1016C12.686 40.5533 8.99728 37.5076 6.64866 33.5028C4.30004 29.498 3.44273 24.7919 4.22821 20.2161C5.01368 15.6403 7.39138 11.4895 10.9411 8.49718C14.4909 5.50487 18.9841 3.8637 23.6268 3.8637C28.2695 3.8637 32.7627 5.50487 36.3125 8.49718C39.8622 11.4895 42.2399 15.6403 43.0254 20.2161C43.8109 24.7919 42.9536 29.498 40.6049 33.5028C38.2563 37.5076 34.5676 40.5533 30.1907 42.1016L30.2093 42.1078Z" />
    </symbol>

    <symbol id="related-resources" width="38" height="25" viewBox="0 0 38 25" stroke="var(--fl-fgColor, #8d2a2d)" fill="none">
        <path d="M12.0775 23.0499C18.1139 23.0499 23.0075 18.1564 23.0075 12.1199C23.0075 6.08347 18.1139 1.18994 12.0775 1.18994C6.04099 1.18994 1.14746 6.08347 1.14746 12.1199C1.14746 18.1564 6.04099 23.0499 12.0775 23.0499Z" stroke-width="2"/>
        <path d="M25.0775 23.0499C31.1139 23.0499 36.0075 18.1564 36.0075 12.1199C36.0075 6.08347 31.1139 1.18994 25.0775 1.18994C19.041 1.18994 14.1475 6.08347 14.1475 12.1199C14.1475 18.1564 19.041 23.0499 25.0775 23.0499Z" stroke-width="2"/>
    </symbol>

    <!-- Logos  -->

    <symbol id="logo-ildh" viewBox="0 0 78 81">
        <path d="M15.0006 80.1455L38.504 71.6116L44.3418 69.4897L50.187 67.3703C63.122 62.6739 69.8264 48.2982 65.1277 35.4056L63.0017 29.5858L60.8733 23.7635L52.2811 0.269043L28.8537 8.77601L23.0134 10.8979L17.1756 13.0172C4.24308 17.7137 -2.46378 32.0894 2.23495 44.982" fill="#1E97BD"/>
        <path d="M14.983 80.1451L39.5176 75.2846L45.6131 74.0781L51.7063 72.874C65.2084 70.1991 74.0461 57.0152 71.3653 43.5548L70.1526 37.4805L68.9423 31.4038L64.0521 6.8667L39.5961 11.7125L33.4932 12.9141L27.4074 14.1378C13.9053 16.8103 5.06761 29.9941 7.74838 43.4545" fill="#134D5F"/>
        <path d="M14.9856 80.1159H52.4281C66.1929 80.1159 77.4364 68.9021 77.4364 55.1799V17.7771H40.0774C26.3126 17.7771 15.0666 28.9908 15.0666 42.7131" fill="#D0CB5F"/>
        <path d="M65.0906 45.2189V52.747C65.0776 56.7153 63.4906 60.5175 60.6758 63.3236C57.861 66.1297 54.0471 67.7118 50.0664 67.7247H27.4934V59.2569H27.572C27.7237 58.5548 28.1093 57.9245 28.666 57.4686C29.2227 57.0127 29.9178 56.758 30.6382 56.7459L41.2582 55.5712L49.2048 45.378L30.7216 46.7901C29.9753 46.784 29.2557 46.512 28.693 46.0232C28.1302 45.5344 27.7613 44.8612 27.653 44.125C28.2029 36.4403 34.733 30.2461 42.6771 30.2461H65.2624L65.0906 45.2189Z" fill="var(--ildh-wordmark-colour)"/>
    </symbol>

    <symbol id="logo-ildh-wordmark" viewBox="0 0 283 81">
        <!-- logo -->
        <path d="M14.5457 80.1455L38.0492 71.6116L43.887 69.4897L49.7322 67.3703C62.6672 62.6739 69.3716 48.2982 64.6728 35.4056L62.5469 29.5858L60.4185 23.7635L51.8262 0.269043L28.3989 8.77601L22.5586 10.8979L16.7208 13.0172C3.78824 17.7137 -2.91861 32.0894 1.78011 44.982" fill="#1E97BD"/>
        <path d="M14.5282 80.1451L39.0627 75.2846L45.1583 74.0781L51.2514 72.874C64.7535 70.1991 73.5912 57.0152 70.9105 43.5548L69.6977 37.4805L68.4875 31.4038L63.5973 6.8667L39.1413 11.7125L33.0383 12.9141L26.9526 14.1378C13.4505 16.8103 4.61277 29.9941 7.29355 43.4545" fill="#134D5F"/>
        <path d="M14.5308 80.1159H51.9733C65.738 80.1159 76.9816 68.9021 76.9816 55.1799V17.7771H39.6226C25.8578 17.7771 14.6118 28.9908 14.6118 42.7131" fill="#D0CB5F"/>
        <path d="M64.6357 45.2189V52.747C64.6228 56.7153 63.0358 60.5175 60.221 63.3236C57.4062 66.1297 53.5923 67.7118 49.6116 67.7247H27.0386V59.2569H27.1171C27.2689 58.5548 27.6545 57.9245 28.2112 57.4686C28.7679 57.0127 29.463 56.758 30.1833 56.7459L40.8033 55.5712L48.7499 45.378L30.2668 46.7901C29.5205 46.784 28.8009 46.512 28.2381 46.0232C27.6754 45.5344 27.3065 44.8612 27.1981 44.125C27.748 36.4403 34.2781 30.2461 42.2223 30.2461H64.8076L64.6357 45.2189Z" fill="var(--ildh-wordmark-colour)"/>
        <!-- letters -->
        <path d="M93.675 25.8996V24.5732L95.0302 24.3603C95.1445 24.3556 95.2563 24.3255 95.3574 24.2722C95.4585 24.2188 95.5463 24.1435 95.6144 24.0519C95.7217 23.772 95.7662 23.4721 95.7446 23.1733V11.9596C95.7679 11.6715 95.7189 11.3822 95.6022 11.1177C95.5219 11.0259 95.4232 10.9521 95.3123 10.9011C95.2015 10.8501 95.0811 10.823 94.959 10.8216L93.675 10.6307V9.3042H100.721V10.6307L99.341 10.8436C99.2289 10.844 99.1185 10.8711 99.0191 10.9226C98.9196 10.9741 98.8339 11.0485 98.769 11.1397C98.6527 11.4216 98.6039 11.7266 98.6266 12.0305V23.2443C98.5994 23.5298 98.653 23.8172 98.7813 24.0739C98.9387 24.2438 99.156 24.3465 99.3877 24.3603L100.721 24.5732V25.8996H93.675Z" fill="var(--ildh-wordmark-text-colour)"/>
        <path d="M103.313 25.8999V24.5954L104.406 24.407C104.504 24.3973 104.6 24.3657 104.685 24.3144C104.77 24.2632 104.842 24.1936 104.897 24.1109C104.995 23.8416 105.035 23.5547 105.014 23.269V16.8912C105.042 16.5255 104.993 16.1581 104.872 15.8119C104.796 15.7049 104.697 15.6162 104.581 15.5527C104.466 15.4891 104.338 15.4523 104.207 15.4448L103.112 15.3029L103.279 13.9495L106.942 13.6656L107.251 13.8565L107.44 15.9661H107.511C107.921 15.2259 108.521 14.6077 109.249 14.1747C109.988 13.7252 110.838 13.4911 111.704 13.4992C112.456 13.476 113.201 13.6444 113.869 13.9886C114.445 14.3009 114.907 14.7865 115.19 15.3763C115.5 16.0606 115.651 16.8062 115.629 17.5569V23.4599C115.605 23.7058 115.653 23.9536 115.769 24.172C115.929 24.329 116.14 24.4222 116.364 24.4339L117.387 24.5979V25.9023H111.274V24.6224L112.227 24.4559C112.441 24.4329 112.64 24.3318 112.784 24.172C112.893 23.9513 112.939 23.7049 112.917 23.4599V18.3596C112.935 17.7912 112.863 17.2236 112.701 16.6783C112.587 16.3045 112.342 15.9839 112.011 15.7752C111.616 15.5678 111.173 15.4697 110.727 15.4913C110.176 15.4759 109.631 15.5996 109.141 15.8511C108.69 16.0962 108.325 16.4727 108.095 16.9303C107.835 17.4631 107.709 18.0511 107.727 18.6435V23.3644C107.713 23.6148 107.753 23.8653 107.845 24.0986C107.895 24.1864 107.965 24.261 108.049 24.3163C108.134 24.3717 108.23 24.4061 108.331 24.4168L109.448 24.6297V25.9097L103.313 25.8999Z" fill="var(--ildh-wordmark-text-colour)"/>
        <path d="M124.718 26.2328C123.645 26.2616 122.584 25.9994 121.649 25.4741C120.791 24.9671 120.101 24.2211 119.663 23.3278C119.174 22.3031 118.933 21.178 118.961 20.0434C118.935 18.8597 119.187 17.6863 119.697 16.6172C120.159 15.6699 120.885 14.876 121.789 14.3313C122.762 13.7668 123.874 13.4829 125 13.5115C125.79 13.4969 126.575 13.6427 127.308 13.9398C127.917 14.183 128.457 14.5742 128.876 15.0778C129.25 15.5322 129.453 16.1028 129.448 16.6906C129.453 16.987 129.383 17.2797 129.245 17.5423C129.112 17.7922 128.91 17.9987 128.663 18.137C128.377 18.2868 128.057 18.3601 127.735 18.3499C127.337 18.3728 126.943 18.2597 126.618 18.0293C126.486 17.9274 126.381 17.7957 126.31 17.645C126.24 17.4943 126.206 17.329 126.213 17.1629C126.22 16.9431 126.269 16.7265 126.355 16.5242C126.495 16.1961 126.659 15.8787 126.846 15.5746C126.583 15.3801 126.283 15.2395 125.965 15.161C125.59 15.0822 125.207 15.046 124.823 15.0533C124.26 15.0508 123.713 15.2437 123.277 15.5991C122.785 16.0099 122.415 16.5474 122.209 17.1531C121.941 17.902 121.812 18.6931 121.828 19.4879C121.828 20.9416 122.149 22.0837 122.791 22.9142C123.105 23.3173 123.513 23.639 123.979 23.852C124.444 24.065 124.955 24.163 125.466 24.1378C126.036 24.1411 126.601 24.0364 127.131 23.8295C127.664 23.6171 128.155 23.3122 128.582 22.9289L129.485 23.947C128.948 24.6546 128.252 25.227 127.452 25.6185C126.602 26.0352 125.665 26.2457 124.718 26.2328Z" fill="var(--ildh-wordmark-text-colour)"/>
        <path d="M130.902 25.8998V24.5733L132.186 24.3604C132.298 24.3559 132.409 24.3268 132.51 24.2753C132.61 24.2237 132.698 24.1508 132.767 24.0618C132.877 23.7791 132.921 23.4755 132.897 23.1734V10.8682C132.897 10.3298 132.839 9.97492 132.721 9.80116C132.603 9.6274 132.328 9.50992 131.898 9.44629L130.916 9.30434L131.059 7.87999L135.318 7.73804L135.603 7.9999V23.2444C135.59 23.5027 135.63 23.7607 135.721 24.0031C135.799 24.1769 136.015 24.2968 136.364 24.3604L137.591 24.6051V25.9096L130.902 25.8998Z" fill="var(--ildh-wordmark-text-colour)"/>
        <path d="M144.028 26.2326C142.761 26.2326 141.804 25.8851 141.163 25.1901C140.522 24.495 140.201 23.4892 140.201 22.1774V16.9132C140.227 16.5441 140.177 16.1737 140.056 15.8241C139.983 15.7134 139.884 15.6215 139.769 15.5556C139.653 15.4897 139.524 15.4518 139.391 15.4448L138.392 15.3028L138.583 13.9494L142.602 13.6655L142.911 13.8564V21.3967C142.893 21.9681 142.961 22.5389 143.112 23.0903C143.21 23.4593 143.444 23.7777 143.768 23.9811C144.148 24.1721 144.571 24.2615 144.995 24.2405C145.544 24.2578 146.087 24.1267 146.566 23.8612C147 23.6027 147.347 23.2232 147.566 22.7697C147.817 22.2453 147.942 21.6694 147.929 21.0883V16.9132C147.954 16.5412 147.91 16.1678 147.799 15.8119C147.71 15.6307 147.485 15.5084 147.121 15.4448L146.139 15.3028L146.353 13.9494L150.325 13.6655L150.634 13.8564V23.2444C150.606 23.53 150.66 23.8178 150.789 24.0741C150.948 24.2457 151.163 24.355 151.395 24.3824L152.512 24.5954V25.8998L148.445 26.0418L148.113 24.0986H148.042C147.7 24.5338 147.309 24.928 146.876 25.2733C146.487 25.5748 146.054 25.8142 145.592 25.983C145.089 26.1558 144.56 26.2403 144.028 26.2326Z" fill="var(--ildh-wordmark-text-colour)"/>
        <path d="M154.685 26.2325L154.326 22.1063L155.848 22.0109C156.041 22.5411 156.318 23.0369 156.668 23.4793C156.969 23.8544 157.352 24.1551 157.788 24.3579C158.218 24.5488 158.684 24.6456 159.155 24.6418C159.835 24.6418 160.361 24.4802 160.724 24.1523C160.908 23.983 161.053 23.7753 161.148 23.5439C161.242 23.3125 161.285 23.0632 161.271 22.8136C161.281 22.5248 161.195 22.2409 161.026 22.006C160.798 21.7393 160.508 21.5318 160.181 21.4015C159.651 21.1767 159.103 20.9981 158.542 20.868C157.954 20.716 157.379 20.518 156.823 20.2757C156.372 20.0845 155.951 19.8289 155.574 19.517C155.251 19.2465 154.995 18.9057 154.825 18.521C154.65 18.0924 154.567 17.6324 154.579 17.17C154.56 16.4807 154.741 15.8005 155.102 15.2122C155.465 14.6544 155.981 14.2133 156.59 13.942C157.296 13.629 158.063 13.4753 158.836 13.4917C159.361 13.4925 159.883 13.5751 160.383 13.7364C160.807 13.8617 161.208 14.0542 161.571 14.3066L161.762 13.499H162.975L163.26 17.4148L161.738 17.2948C161.58 16.6201 161.209 16.0136 160.68 15.5646C160.193 15.1492 159.573 14.9224 158.932 14.9258C158.408 14.8971 157.89 15.0426 157.459 15.3394C157.282 15.4779 157.14 15.657 157.047 15.8615C156.954 16.066 156.912 16.2899 156.924 16.5141C156.914 16.8023 157 17.0856 157.169 17.3193C157.396 17.5845 157.687 17.7882 158.014 17.9116C158.532 18.1282 159.064 18.3105 159.607 18.4573C160.226 18.63 160.833 18.84 161.426 19.0863C161.88 19.2721 162.302 19.5281 162.676 19.845C162.996 20.1198 163.248 20.4649 163.412 20.8533C163.583 21.2829 163.667 21.7421 163.658 22.2042C163.674 22.9511 163.476 23.6871 163.088 24.3261C162.711 24.932 162.171 25.4204 161.529 25.7357C160.814 26.0778 160.027 26.2455 159.234 26.2252C158.639 26.2322 158.047 26.1564 157.474 26C157.009 25.8765 156.567 25.6799 156.165 25.4176L155.905 26.2252L154.685 26.2325Z" fill="var(--ildh-wordmark-text-colour)"/>
        <path d="M165.219 25.8998V24.5734L166.505 24.3604C166.619 24.3556 166.731 24.3254 166.831 24.272C166.932 24.2187 167.019 24.1435 167.087 24.0521C167.194 23.7722 167.239 23.4723 167.217 23.1735V17.0086C167.246 16.6226 167.194 16.2349 167.063 15.8706C166.96 15.6822 166.726 15.5622 166.361 15.5157L165.29 15.3493L165.457 13.9739L169.63 13.761L169.94 13.9029V23.2444C169.931 23.4935 169.967 23.742 170.045 23.9787C170.117 24.1622 170.328 24.2846 170.676 24.3482L171.904 24.5929V25.8974L165.219 25.8998ZM168.216 11.3185C167.737 11.3399 167.267 11.174 166.908 10.856C166.743 10.6988 166.614 10.5083 166.529 10.2972C166.445 10.0861 166.406 9.85942 166.417 9.63232C166.406 9.40044 166.444 9.16885 166.529 8.95257C166.613 8.73628 166.742 8.54014 166.908 8.37683C167.264 8.05207 167.734 7.88132 168.216 7.90205C168.711 7.87489 169.197 8.04077 169.572 8.36459C169.897 8.69532 170.079 9.13991 170.079 9.60294C170.079 10.066 169.897 10.5106 169.572 10.8413C169.201 11.1727 168.714 11.3443 168.216 11.3185Z" fill="var(--ildh-wordmark-text-colour)"/>
        <path d="M177.562 25.8999L173.951 16.6294C173.877 16.4093 173.785 16.1957 173.676 15.9906C173.603 15.8488 173.502 15.7231 173.379 15.6211C173.237 15.5222 173.076 15.4539 172.905 15.4204L172.049 15.2075L172.309 13.8321H178.326V15.1365L177.233 15.3029C176.949 15.3494 176.772 15.4571 176.71 15.6211C176.649 15.785 176.686 16.0763 176.828 16.4874L179.421 23.5847H179.539L182.052 16.6294C182.185 16.3619 182.224 16.0573 182.16 15.7655C182.089 15.5672 181.878 15.4375 181.53 15.3739L180.53 15.1291L180.793 13.8247H185.835V15.1536L184.979 15.3421C184.751 15.3838 184.54 15.491 184.372 15.6504C184.158 15.9376 183.992 16.2574 183.881 16.5976L180.268 25.8975L177.562 25.8999Z" fill="var(--ildh-wordmark-text-colour)"/>
        <path d="M192.38 26.2326C191.289 26.2598 190.21 25.998 189.253 25.4739C188.377 24.9717 187.673 24.2199 187.23 23.3154C186.745 22.3022 186.506 21.1899 186.53 20.0677C186.499 18.8619 186.76 17.6664 187.291 16.5827C187.764 15.6379 188.498 14.848 189.407 14.3067C190.367 13.7537 191.461 13.4743 192.569 13.4991C193.41 13.4816 194.242 13.6646 194.997 14.0326C195.671 14.3681 196.232 14.8919 196.612 15.5401C197.007 16.233 197.204 17.0198 197.184 17.8162C197.182 18.1925 197.158 18.5684 197.113 18.942C197.062 19.3553 196.98 19.7643 196.868 20.1656H189.432C189.439 20.9111 189.606 21.6463 189.923 22.3217C190.195 22.8922 190.63 23.3704 191.172 23.6971C191.739 24.0236 192.384 24.1879 193.038 24.1719C193.667 24.1763 194.291 24.0513 194.87 23.8048C195.44 23.5605 195.963 23.2193 196.416 22.7965L197.344 23.7926C196.777 24.5461 196.039 25.1556 195.191 25.5718C194.319 26.0099 193.356 26.2363 192.38 26.2326ZM189.407 18.6458H194.425C194.459 18.4769 194.483 18.3061 194.496 18.1343C194.514 17.9532 194.521 17.7599 194.521 17.5543C194.521 16.6994 194.334 16.0549 193.961 15.6209C193.588 15.1869 193.037 14.9699 192.309 14.9699C191.785 14.9528 191.269 15.1019 190.836 15.3958C190.404 15.7175 190.071 16.1532 189.874 16.6537C189.621 17.291 189.468 17.9626 189.417 18.6458H189.407Z" fill="var(--ildh-wordmark-text-colour)"/>
        <path d="M93.675 52.9038V51.5822L94.9344 51.3693C95.0492 51.3648 95.1617 51.3361 95.2646 51.285C95.3674 51.234 95.4582 51.1618 95.531 51.0732C95.6508 50.7846 95.6996 50.4716 95.6734 50.1603V38.9393C95.6977 38.657 95.6442 38.3735 95.5187 38.1194C95.4385 38.0308 95.3414 37.959 95.2331 37.9082C95.1247 37.8574 95.0074 37.8285 94.8878 37.8233L93.675 37.6324V36.3035H100.809V37.6324L99.3116 37.8453C99.08 37.8572 98.8623 37.9591 98.7052 38.1292C98.5775 38.3782 98.5239 38.6584 98.5505 38.9368V51.3375H101.04C101.484 51.3478 101.928 51.2968 102.358 51.1858C102.717 51.082 103.041 50.8852 103.298 50.6155C103.604 50.2829 103.846 49.8972 104.013 49.4775C104.217 48.9881 104.44 48.3738 104.678 47.6151H106.271L105.677 52.9038H93.675Z" fill="var(--ildh-wordmark-text-colour)"/>
        <path d="M114.419 53.2367C113.327 53.2642 112.248 53.0024 111.291 52.4781C110.416 51.9765 109.711 51.2246 109.269 50.3195C108.784 49.3062 108.545 48.194 108.569 47.0719C108.538 45.8653 108.799 44.6691 109.33 43.5844C109.804 42.6405 110.538 41.851 111.446 41.3084C112.406 40.757 113.5 40.4785 114.608 40.5032C115.448 40.4858 116.281 40.6687 117.036 41.0367C117.71 41.3705 118.272 41.8937 118.651 42.5419C119.044 43.2354 119.241 44.0217 119.223 44.8179C119.221 45.1942 119.197 45.5701 119.152 45.9437C119.099 46.3568 119.017 46.7657 118.907 47.1673H111.471C111.476 47.9137 111.644 48.6501 111.962 49.3259C112.234 49.8963 112.669 50.3745 113.211 50.7013C113.778 51.027 114.423 51.1912 115.077 51.1761C115.706 51.1804 116.33 51.0555 116.908 50.809C117.478 50.5631 118.001 50.2221 118.455 49.8007L119.383 50.7967C118.817 51.5435 118.084 52.1478 117.242 52.5613C116.368 53.007 115.401 53.2386 114.419 53.2367ZM111.446 45.65H116.464C116.498 45.4819 116.522 45.3119 116.535 45.1409C116.55 44.9598 116.56 44.7665 116.56 44.5609C116.56 43.706 116.373 43.0615 116 42.6275C115.627 42.1935 115.076 41.9765 114.348 41.9765C113.824 41.9594 113.308 42.1085 112.875 42.4024C112.441 42.7228 112.108 43.1589 111.912 43.6603C111.657 44.2955 111.5 44.9655 111.446 45.6475V45.65Z" fill="var(--ildh-wordmark-text-colour)"/>
        <path d="M124.813 53.2366C123.765 53.2366 122.93 52.9429 122.302 52.358C121.989 52.0597 121.743 51.6983 121.581 51.2977C121.42 50.8972 121.346 50.4668 121.364 50.0355C121.364 49.1324 121.59 48.4153 122.042 47.8769C122.493 47.3385 123.223 46.9371 124.229 46.6679C125.536 46.3625 126.871 46.1984 128.213 46.1784V44.5583C128.227 44.0377 128.144 43.519 127.968 43.0287C127.831 42.6504 127.56 42.3347 127.207 42.1403C126.778 41.9317 126.304 41.8332 125.827 41.854C125.416 41.8533 125.008 41.9135 124.614 42.0327C124.282 42.1169 123.973 42.275 123.711 42.4952C123.853 42.7399 123.971 42.9406 124.067 43.1242C124.144 43.266 124.212 43.4123 124.271 43.5622C124.308 43.6609 124.328 43.7652 124.33 43.8706C124.331 44.0242 124.296 44.1761 124.228 44.3138C124.16 44.4516 124.06 44.5714 123.937 44.6635C123.64 44.8883 123.273 45.0018 122.901 44.9841C122.51 45.0116 122.124 44.889 121.821 44.6415C121.694 44.5165 121.596 44.3661 121.533 44.2002C121.469 44.0344 121.442 43.8569 121.453 43.6797C121.46 43.0927 121.689 42.53 122.093 42.1036C122.572 41.5877 123.167 41.1934 123.829 40.9534C124.604 40.6613 125.428 40.5169 126.257 40.5275C127.155 40.4975 128.05 40.655 128.884 40.9901C129.548 41.2743 130.091 41.7818 130.418 42.4242C130.774 43.1896 130.942 44.0285 130.909 44.8716V50.3487C130.898 50.4897 130.916 50.6315 130.961 50.7656C131.006 50.8996 131.078 51.0234 131.172 51.1294C131.274 51.2217 131.395 51.2925 131.525 51.3375C131.656 51.3825 131.795 51.4008 131.933 51.3913C132.111 51.3908 132.288 51.3728 132.463 51.3374C132.652 51.3016 132.839 51.2542 133.023 51.1955L133.285 52.2626C132.952 52.5513 132.574 52.7836 132.166 52.9503C131.762 53.1324 131.325 53.2298 130.882 53.2366C130.28 53.2736 129.685 53.0831 129.217 52.7031C128.797 52.2971 128.536 51.7546 128.481 51.1735C128.231 51.5932 127.915 51.9694 127.543 52.287C127.183 52.5896 126.773 52.8266 126.33 52.987C125.844 53.1598 125.33 53.2443 124.813 53.2366ZM125.884 51.4574C126.299 51.4647 126.709 51.3625 127.072 51.1612C127.417 50.9669 127.704 50.6849 127.904 50.3438C128.114 49.9836 128.221 49.5732 128.213 49.1569V47.4976C127.441 47.4791 126.669 47.5614 125.918 47.7423C125.405 47.8537 124.935 48.1083 124.563 48.4765C124.262 48.8204 124.105 49.2662 124.123 49.7222C124.111 49.9562 124.148 50.1901 124.231 50.4092C124.314 50.6282 124.442 50.8277 124.607 50.9948C124.779 51.1522 124.98 51.2742 125.199 51.3536C125.418 51.433 125.651 51.4683 125.884 51.4574Z" fill="var(--ildh-wordmark-text-colour)"/>
        <path d="M134.302 52.9038V51.5822L135.397 51.3938C135.495 51.3842 135.591 51.3527 135.676 51.3014C135.761 51.2502 135.833 51.1805 135.888 51.0976C135.987 50.8286 136.028 50.5417 136.008 50.2558V43.9416C136.031 43.568 135.983 43.1934 135.865 42.8379C135.794 42.726 135.695 42.6337 135.578 42.5696C135.462 42.5055 135.331 42.4715 135.198 42.4708L134.105 42.3288L134.27 40.9534L137.864 40.6695L138.173 40.858L138.436 42.992H138.507C138.879 42.2659 139.416 41.6365 140.076 41.1541C140.672 40.7276 141.389 40.4997 142.123 40.5031C142.803 40.4687 143.469 40.7025 143.977 41.1541C144.208 41.3801 144.389 41.6524 144.508 41.9531C144.627 42.2538 144.681 42.5762 144.666 42.899C144.677 43.279 144.613 43.6572 144.477 44.0126C144.362 44.2986 144.157 44.5399 143.893 44.7003C143.601 44.8685 143.268 44.9532 142.931 44.945C142.534 44.9729 142.14 44.864 141.814 44.6366C141.691 44.5417 141.592 44.419 141.526 44.2786C141.46 44.1382 141.428 43.9841 141.433 43.829C141.429 43.5506 141.489 43.2749 141.61 43.0239C141.681 42.8648 141.765 42.6763 141.855 42.4536C141.52 42.2967 141.138 42.2713 140.785 42.3826C140.394 42.5115 140.042 42.7362 139.761 43.0361C139.433 43.3783 139.175 43.7805 139 44.2206C138.81 44.692 138.713 45.1956 138.716 45.7037V50.3023C138.697 50.5639 138.734 50.8266 138.824 51.0732C138.895 51.2078 139.069 51.291 139.334 51.3179L141.283 51.6018V52.9062L134.302 52.9038Z" fill="var(--ildh-wordmark-text-colour)"/>
        <path d="M146.076 52.9039V51.5995L147.168 51.411C147.267 51.4016 147.363 51.3698 147.448 51.318C147.533 51.2663 147.605 51.196 147.659 51.1124C147.757 50.844 147.797 50.558 147.777 50.273V43.8928C147.804 43.5279 147.756 43.1613 147.634 42.8159C147.559 42.7082 147.46 42.6189 147.344 42.5549C147.229 42.4909 147.101 42.4538 146.969 42.4464L145.874 42.3045L146.041 40.9535L149.704 40.6696L150.013 40.8581L150.202 42.9701H150.276C150.683 42.2291 151.283 41.6105 152.012 41.1787C152.751 40.7293 153.601 40.4953 154.467 40.5032C155.218 40.4793 155.962 40.6479 156.629 40.9927C157.205 41.3045 157.667 41.7892 157.95 42.3779C158.26 43.0631 158.41 43.8095 158.389 44.5609V50.4639C158.367 50.71 158.417 50.9573 158.532 51.1761C158.692 51.3325 158.904 51.4248 159.128 51.4355L160.15 51.6019V52.9063H154.042V51.6264L154.994 51.46C155.208 51.435 155.406 51.3342 155.552 51.1761C155.66 50.9552 155.706 50.7089 155.684 50.4639V45.3636C155.704 44.7946 155.632 44.2261 155.471 43.6799C155.356 43.3072 155.111 42.9877 154.781 42.7792C154.385 42.5722 153.941 42.4742 153.494 42.4953C152.945 42.483 152.401 42.6092 151.913 42.8624C151.462 43.1068 151.097 43.4836 150.868 43.9417C150.608 44.4748 150.482 45.0626 150.499 45.6549V50.3587C150.482 50.6131 150.523 50.8681 150.617 51.1051C150.668 51.1878 150.738 51.2578 150.821 51.3095C150.903 51.3613 150.996 51.3935 151.093 51.4037L152.21 51.6166V52.8966L146.076 52.9039Z" fill="var(--ildh-wordmark-text-colour)"/>
        <path d="M161.748 52.9036V51.5821L163.031 51.3691C163.146 51.3656 163.258 51.3359 163.359 51.2825C163.461 51.229 163.548 51.1532 163.616 51.0608C163.723 50.7818 163.768 50.4827 163.746 50.1846V44.0124C163.776 43.6265 163.723 43.2386 163.591 42.8744C163.488 42.6835 163.255 42.5661 162.889 42.5171L161.819 42.3531L161.986 40.9777L166.159 40.7648L166.468 40.9067V50.2483C166.459 50.5015 166.496 50.7544 166.576 50.9947C166.648 51.1758 166.859 51.2982 167.207 51.3618L168.435 51.6065V52.911L161.748 52.9036ZM164.745 38.3224C164.265 38.3438 163.796 38.1778 163.437 37.8598C163.271 37.7029 163.142 37.5125 163.057 37.3013C162.973 37.0902 162.934 36.8633 162.946 36.6361C162.934 36.4038 162.972 36.1718 163.057 35.9551C163.141 35.7383 163.271 35.5418 163.437 35.3782C163.793 35.0541 164.263 34.8842 164.745 34.9059C165.24 34.8792 165.726 35.045 166.1 35.3684C166.425 35.6991 166.607 36.1437 166.607 36.6068C166.607 37.0698 166.425 37.5144 166.1 37.8451C165.729 38.1754 165.242 38.3468 164.745 38.3224Z" fill="var(--ildh-wordmark-text-colour)"/>
        <path d="M170.215 52.9039V51.5995L171.31 51.4111C171.409 51.4016 171.505 51.3698 171.59 51.3181C171.675 51.2664 171.747 51.1961 171.801 51.1125C171.899 50.8441 171.939 50.558 171.918 50.2731V43.8928C171.946 43.5279 171.897 43.1614 171.776 42.816C171.701 42.7079 171.602 42.6185 171.486 42.5544C171.371 42.4904 171.243 42.4535 171.111 42.4464L170.016 42.3045L170.183 40.9536L173.846 40.6697L174.155 40.8581L174.346 42.9702H174.418C174.826 42.2296 175.425 41.6112 176.153 41.1787C176.892 40.7297 177.743 40.4957 178.608 40.5032C179.359 40.4791 180.104 40.6477 180.771 40.9927C181.347 41.3039 181.809 41.7888 182.092 42.3779C182.407 43.061 182.561 43.8068 182.543 44.5585V50.4615C182.52 50.7079 182.571 50.9557 182.688 51.1737C182.847 51.3307 183.059 51.4231 183.282 51.4331L184.303 51.5995V52.9039H178.183V51.624L179.133 51.4576C179.348 51.4317 179.546 51.3311 179.693 51.1737C179.8 50.9521 179.844 50.7062 179.823 50.4615V45.3637C179.843 44.7947 179.771 44.2262 179.61 43.6799C179.496 43.3068 179.251 42.9871 178.92 42.7793C178.525 42.5722 178.082 42.4742 177.636 42.4954C177.086 42.483 176.541 42.6093 176.053 42.8625C175.601 43.1068 175.236 43.4836 175.007 43.9418C174.747 44.4748 174.621 45.0626 174.638 45.6549V50.3587C174.622 50.6132 174.662 50.8682 174.756 51.1051C174.808 51.1876 174.877 51.2574 174.96 51.3091C175.042 51.3608 175.136 51.3932 175.233 51.4037L176.352 51.6166V52.8966L170.215 52.9039Z" fill="var(--ildh-wordmark-text-colour)"/>
        <path d="M191.096 58.3564C190.274 58.3643 189.453 58.3013 188.641 58.1679C188.032 58.0718 187.442 57.8793 186.894 57.5977C186.475 57.383 186.119 57.0644 185.86 56.6726C185.621 56.2801 185.501 55.8271 185.514 55.3681C185.506 54.9769 185.596 54.59 185.777 54.2424C185.971 53.8962 186.239 53.597 186.562 53.3662C186.943 53.086 187.355 52.8511 187.79 52.6663V52.5611C187.368 52.4336 186.998 52.1767 186.732 51.8268C186.481 51.509 186.343 51.1175 186.339 50.7133C186.336 50.296 186.448 49.8858 186.66 49.5263C186.996 49.0156 187.392 48.5465 187.839 48.1289V48.0579C187.275 47.7792 186.81 47.3362 186.506 46.7878C186.19 46.1765 186.034 45.4953 186.054 44.8079C186.03 43.9891 186.259 43.1827 186.709 42.4976C187.165 41.8391 187.801 41.3245 188.541 41.0145C189.394 40.653 190.314 40.4753 191.241 40.4932C191.604 40.4938 191.966 40.5217 192.324 40.5764C192.694 40.6307 193.06 40.7125 193.419 40.8211C193.756 40.9228 194.079 41.0658 194.381 41.247C194.624 40.5822 195.004 39.976 195.498 39.4678C195.7 39.27 195.939 39.1141 196.201 39.009C196.464 38.904 196.745 38.852 197.027 38.8559C197.312 38.8518 197.593 38.9129 197.85 39.0346C198.082 39.1432 198.286 39.305 198.444 39.5069C198.6 39.7194 198.679 39.978 198.67 40.2411C198.665 40.6094 198.515 40.961 198.252 41.22C198.129 41.3578 197.978 41.468 197.808 41.5435C197.639 41.619 197.456 41.658 197.271 41.6581C197.062 41.6626 196.858 41.5999 196.689 41.4795C196.513 41.3508 196.371 41.1832 196.271 40.99L196.011 40.5152C195.868 40.7222 195.741 40.9398 195.631 41.1662C195.52 41.3963 195.407 41.6557 195.297 41.9616C195.993 42.7069 196.368 43.6944 196.343 44.7124C196.362 45.4914 196.147 46.2583 195.726 46.915C195.291 47.5569 194.685 48.0653 193.976 48.3834C193.127 48.7589 192.204 48.9412 191.276 48.917C190.905 48.9157 190.535 48.8879 190.168 48.8337C189.876 48.7944 189.586 48.7347 189.302 48.6551C189.095 48.861 188.915 49.092 188.767 49.3428C188.666 49.524 188.612 49.7278 188.612 49.9351C188.604 50.1322 188.666 50.3257 188.789 50.4808C188.933 50.6374 189.126 50.7416 189.336 50.7769C189.646 50.8388 189.961 50.8667 190.276 50.8601H193.583C195.041 50.8601 196.112 51.113 196.794 51.6188C197.477 52.1246 197.817 52.8914 197.816 53.9193C197.821 54.4135 197.733 54.9043 197.555 55.3657C197.374 55.8169 197.112 56.2315 196.782 56.5894C196.41 56.9825 195.971 57.3072 195.486 57.5487C194.891 57.8415 194.258 58.0492 193.605 58.1655C192.777 58.3091 191.937 58.3731 191.096 58.3564ZM191.359 56.7215C192.019 56.7353 192.678 56.6428 193.308 56.4474C193.778 56.3072 194.201 56.0454 194.536 55.6888C194.818 55.3724 194.97 54.9618 194.963 54.5385C194.977 54.3409 194.939 54.1431 194.853 53.9646C194.767 53.7861 194.635 53.633 194.472 53.5204C194.145 53.2985 193.637 53.1876 192.95 53.1876H189.147C188.837 53.3986 188.58 53.6784 188.396 54.005C188.231 54.3155 188.147 54.6621 188.15 55.0133C188.133 55.2785 188.194 55.543 188.324 55.7746C188.455 56.0062 188.651 56.1949 188.887 56.3177C189.395 56.5869 190.218 56.7215 191.359 56.7215ZM191.217 47.38C191.978 47.38 192.56 47.1508 192.965 46.6923C193.367 46.2322 193.571 45.5861 193.571 44.7467C193.571 43.8461 193.355 43.1559 192.928 42.6713C192.501 42.1868 191.889 41.9371 191.096 41.9371C190.303 41.9371 189.766 42.1819 189.378 42.6493C188.99 43.1167 188.806 43.7947 188.806 44.6635C188.771 45.3728 189 46.0701 189.449 46.6213C189.667 46.8725 189.94 47.0712 190.246 47.2026C190.552 47.334 190.884 47.3946 191.217 47.38Z" fill="var(--ildh-wordmark-text-colour)"/>
        <path d="M204.748 52.9038V51.5823L206.007 51.3693C206.122 51.3648 206.235 51.3361 206.338 51.285C206.44 51.234 206.531 51.1618 206.604 51.0732C206.724 50.7846 206.773 50.4716 206.746 50.1604V38.9393C206.773 38.6588 206.723 38.3762 206.602 38.1219C206.521 38.0333 206.424 37.9615 206.316 37.9107C206.208 37.8598 206.09 37.831 205.971 37.8257L204.758 37.6373V36.3084H211.845C212.835 36.302 213.823 36.4013 214.791 36.6045C215.639 36.7809 216.454 37.0889 217.207 37.5174C217.898 37.9173 218.507 38.4447 219.001 39.0714C219.508 39.7254 219.895 40.4636 220.143 41.252C220.426 42.1697 220.563 43.1261 220.548 44.086C220.569 45.3549 220.355 46.6168 219.917 47.8085C219.519 48.8695 218.882 49.8255 218.056 50.6033C217.192 51.3892 216.164 51.9742 215.046 52.3165C213.73 52.7219 212.357 52.9177 210.979 52.8965L204.748 52.9038ZM211.217 51.3155C212.17 51.3385 213.12 51.1935 214.023 50.8872C214.768 50.6254 215.435 50.181 215.962 49.595C216.508 48.9603 216.895 48.2054 217.091 47.3924C217.346 46.3688 217.465 45.3166 217.447 44.2623C217.447 42.8575 217.226 41.6779 216.782 40.7307C216.377 39.8228 215.688 39.0699 214.818 38.5844C213.823 38.0781 212.714 37.8346 211.597 37.8771H209.633V51.2005C209.877 51.2412 210.123 51.269 210.37 51.2837C210.66 51.3033 210.947 51.3155 211.217 51.3155Z" fill="var(--ildh-wordmark-text-colour)"/>
        <path d="M228.532 53.2367C227.44 53.264 226.361 53.0022 225.404 52.4781C224.529 51.9765 223.825 51.2245 223.384 50.3195C222.897 49.3068 222.657 48.1943 222.681 47.0719C222.65 45.8653 222.911 44.6691 223.442 43.5844C223.916 42.6405 224.65 41.851 225.559 41.3084C226.52 40.757 227.614 40.4786 228.723 40.5032C229.563 40.4861 230.394 40.669 231.148 41.0367C231.823 41.3705 232.386 41.8937 232.766 42.5419C233.158 43.2356 233.355 44.0219 233.336 44.8179C233.334 45.1942 233.31 45.5701 233.265 45.9437C233.213 46.357 233.131 46.766 233.019 47.1673H225.583C225.59 47.9136 225.757 48.6497 226.074 49.3259C226.347 49.8963 226.781 50.3745 227.324 50.7013C227.89 51.0267 228.536 51.191 229.189 51.1761C229.819 51.1804 230.442 51.0555 231.021 50.809C231.59 50.5637 232.114 50.2226 232.567 49.8007L233.495 50.7967C232.928 51.55 232.191 52.1589 231.342 52.5735C230.471 53.0134 229.508 53.2407 228.532 53.2367ZM225.559 45.65H230.576C230.61 45.4819 230.634 45.3119 230.648 45.1409C230.665 44.9598 230.672 44.7665 230.672 44.5609C230.672 43.706 230.486 43.0615 230.113 42.6275C229.739 42.1935 229.185 41.9757 228.451 41.9741C227.927 41.9569 227.411 42.106 226.978 42.3999C226.545 42.7211 226.211 43.157 226.015 43.6578C225.763 44.2943 225.609 44.9651 225.559 45.6475V45.65Z" fill="var(--ildh-wordmark-text-colour)"/>
        <path d="M235.526 53.2366L235.167 49.1104L236.689 49.0149C236.882 49.5449 237.159 50.0406 237.509 50.4833C237.809 50.8577 238.193 51.1576 238.629 51.3595C239.059 51.5516 239.525 51.6484 239.996 51.6434C240.562 51.6798 241.121 51.5054 241.565 51.1539C241.75 50.9844 241.894 50.7763 241.989 50.5444C242.084 50.3126 242.126 50.0627 242.112 49.8128C242.122 49.5247 242.036 49.2416 241.867 49.0076C241.639 48.7402 241.349 48.5326 241.022 48.4031C240.493 48.1772 239.944 47.9986 239.382 47.8696C238.795 47.7165 238.221 47.5185 237.664 47.2773C237.213 47.0852 236.792 46.8297 236.414 46.5186C236.096 46.2468 235.844 45.9061 235.678 45.5226C235.503 45.094 235.42 44.634 235.432 44.1716C235.413 43.4824 235.595 42.8024 235.955 42.2138C236.319 41.6574 236.835 41.2173 237.443 40.946C238.149 40.6319 238.916 40.4781 239.689 40.4957C240.214 40.4954 240.736 40.578 241.236 40.7405C241.659 40.8661 242.06 41.0577 242.424 41.3083L242.615 40.5031H243.828L244.113 44.4188L242.591 44.2989C242.434 43.6239 242.063 43.0172 241.533 42.5686C241.046 42.1526 240.426 41.925 239.785 41.9274C239.256 41.897 238.733 42.0435 238.297 42.3435C238.121 42.4822 237.98 42.661 237.888 42.865C237.795 43.069 237.753 43.2921 237.765 43.5158C237.754 43.8046 237.841 44.0887 238.01 44.3234C238.238 44.5878 238.528 44.7913 238.855 44.9156C239.373 45.1312 239.906 45.3134 240.448 45.4614C241.067 45.6329 241.674 45.843 242.267 46.0904C242.721 46.275 243.143 46.5312 243.516 46.849C243.837 47.1223 244.09 47.4668 244.253 47.8549C244.424 48.2853 244.508 48.7454 244.498 49.2083C244.515 49.9551 244.317 50.6912 243.929 51.3301C243.55 51.9349 243.011 52.423 242.37 52.7398C241.655 53.0818 240.868 53.2496 240.075 53.2293C239.48 53.2367 238.887 53.16 238.314 53.0017C237.85 52.8789 237.408 52.6831 237.006 52.4216L236.746 53.2293L235.526 53.2366Z" fill="var(--ildh-wordmark-text-colour)"/>
        <path d="M246.06 52.9037V51.5822L247.343 51.3692C247.458 51.3657 247.57 51.336 247.671 51.2826C247.773 51.2291 247.86 51.1533 247.928 51.0609C248.035 50.7819 248.08 50.4828 248.058 50.1847V44.0125C248.088 43.6266 248.035 43.2387 247.903 42.8745C247.8 42.6836 247.567 42.5662 247.201 42.5172L246.131 42.3532L246.298 40.9778L250.471 40.7649L250.78 40.9068V50.2484C250.77 50.5015 250.806 50.7543 250.886 50.9948C250.957 51.1759 251.168 51.2983 251.517 51.3619L252.744 51.6066V52.9111L246.06 52.9037ZM249.057 38.3225C248.577 38.3439 248.108 38.1779 247.749 37.8599C247.584 37.7028 247.455 37.5122 247.37 37.3011C247.285 37.0901 247.247 36.8633 247.258 36.6362C247.247 36.404 247.285 36.1721 247.37 35.9555C247.454 35.7388 247.583 35.5422 247.749 35.3783C248.105 35.0542 248.575 34.8843 249.057 34.906C249.552 34.8788 250.038 35.0447 250.412 35.3685C250.737 35.6992 250.919 36.1438 250.919 36.6069C250.919 37.0699 250.737 37.5145 250.412 37.8452C250.041 38.1755 249.554 38.3469 249.057 38.3225Z" fill="var(--ildh-wordmark-text-colour)"/>
        <path d="M259.402 58.3564C258.58 58.3646 257.758 58.3015 256.947 58.1679C256.337 58.0722 255.746 57.8797 255.197 57.5977C254.779 57.3824 254.423 57.0639 254.163 56.6726C253.925 56.2799 253.806 55.8269 253.819 55.3682C253.811 54.9772 253.9 54.5903 254.08 54.2424C254.274 53.8963 254.542 53.5971 254.865 53.3663C255.245 53.0857 255.657 52.8508 256.093 52.6663V52.5611C255.671 52.4349 255.3 52.1777 255.035 51.8269C254.783 51.5096 254.645 51.1177 254.642 50.7133C254.639 50.2962 254.749 49.886 254.961 49.5264C255.298 49.0168 255.694 48.5479 256.139 48.129V48.058C255.576 47.7793 255.111 47.3363 254.806 46.7878C254.49 46.1765 254.335 45.4953 254.355 44.8079C254.331 43.9891 254.56 43.1827 255.01 42.4976C255.466 41.8392 256.102 41.3245 256.841 41.0145C257.695 40.6533 258.615 40.4757 259.542 40.4932C259.904 40.4939 260.266 40.5217 260.625 40.5765C260.995 40.6305 261.361 40.7123 261.719 40.8212C262.057 40.9228 262.38 41.0659 262.682 41.247C262.924 40.5816 263.306 39.9752 263.801 39.4678C263.999 39.2656 264.236 39.1049 264.498 38.9953C264.759 38.8856 265.04 38.8291 265.323 38.829C265.607 38.825 265.887 38.8861 266.143 39.0077C266.376 39.1156 266.58 39.2776 266.737 39.48C266.893 39.6925 266.973 39.9512 266.963 40.2142C266.959 40.5822 266.81 40.9339 266.548 41.1932C266.424 41.3307 266.273 41.4407 266.104 41.5162C265.935 41.5917 265.752 41.6309 265.566 41.6313C265.358 41.6357 265.154 41.573 264.984 41.4526C264.809 41.3244 264.667 41.1567 264.57 40.9631L264.307 40.4883C264.164 40.6953 264.036 40.913 263.926 41.1393C263.816 41.3694 263.703 41.6288 263.593 41.9347C264.287 42.6809 264.663 43.6676 264.641 44.6855C264.66 45.4649 264.445 46.2322 264.022 46.8882C263.587 47.5294 262.982 48.0377 262.274 48.3566C261.425 48.7314 260.502 48.9136 259.574 48.8901C259.204 48.889 258.835 48.8611 258.469 48.8069C258.176 48.7677 257.885 48.708 257.6 48.6282C257.394 48.8348 257.214 49.0657 257.065 49.3159C256.964 49.4971 256.911 49.7009 256.91 49.9082C256.902 50.1057 256.965 50.2997 257.089 50.4539C257.233 50.6115 257.426 50.7158 257.637 50.7501C257.945 50.8119 258.26 50.8398 258.575 50.8333H261.881C263.34 50.8333 264.41 51.0862 265.093 51.5919C265.775 52.0977 266.115 52.8646 266.114 53.8924C266.131 54.8819 265.76 55.8389 265.08 56.5601C264.708 56.9532 264.269 57.2779 263.784 57.5194C263.19 57.8122 262.558 58.0198 261.906 58.1361C261.08 58.2891 260.242 58.3628 259.402 58.3564ZM259.665 56.7216C260.325 56.7354 260.983 56.6428 261.614 56.4475C262.083 56.3073 262.507 56.0455 262.841 55.6888C263.124 55.3727 263.278 54.9621 263.271 54.5385C263.285 54.3409 263.248 54.1429 263.161 53.9643C263.075 53.7857 262.944 53.6327 262.78 53.5204C262.446 53.2977 261.94 53.1876 261.258 53.1876H257.453C257.143 53.3988 256.887 53.6786 256.704 54.005C256.538 54.3152 256.454 54.662 256.458 55.0133C256.441 55.2785 256.502 55.5429 256.633 55.7744C256.763 56.0059 256.959 56.1947 257.195 56.3178C257.701 56.587 258.524 56.7216 259.665 56.7216ZM259.522 47.3801C260.283 47.3801 260.866 47.1508 261.27 46.6924C261.673 46.2323 261.877 45.5862 261.877 44.7467C261.877 43.8461 261.663 43.156 261.233 42.6714C260.804 42.1868 260.195 41.9372 259.402 41.9372C258.609 41.9372 258.071 42.1819 257.683 42.6493C257.296 43.1168 257.112 43.7947 257.112 44.6635C257.076 45.3729 257.306 46.0701 257.755 46.6214C257.973 46.8725 258.245 47.0713 258.551 47.2027C258.857 47.334 259.189 47.3947 259.522 47.3801Z" fill="var(--ildh-wordmark-text-colour)"/>
        <path d="M268.132 52.9039V51.5995L269.224 51.4111C269.324 51.4016 269.419 51.3698 269.504 51.3181C269.589 51.2664 269.662 51.1961 269.715 51.1125C269.814 50.8441 269.854 50.558 269.833 50.2731V43.8928C269.86 43.5279 269.812 43.1614 269.691 42.816C269.615 42.7082 269.516 42.6189 269.401 42.5549C269.286 42.4909 269.157 42.4538 269.026 42.4464L267.931 42.3045L268.098 40.9536L271.76 40.6697L272.07 40.8581L272.261 42.9702H272.332C272.74 42.2291 273.339 41.6105 274.068 41.1787C274.807 40.7293 275.657 40.4953 276.523 40.5032C277.274 40.4791 278.019 40.6477 278.686 40.9927C279.261 41.3046 279.723 41.7893 280.006 42.3779C280.317 43.0631 280.467 43.8095 280.446 44.5609V50.4639C280.424 50.71 280.473 50.9574 280.588 51.1761C280.749 51.3325 280.961 51.4248 281.185 51.4355L282.206 51.602V52.9064H276.093V51.6264L277.046 51.46C277.26 51.4341 277.458 51.3336 277.606 51.1761C277.712 50.9546 277.757 50.7087 277.736 50.4639V45.3637C277.755 44.7947 277.683 44.2262 277.522 43.6799C277.408 43.3068 277.163 42.9871 276.832 42.7793C276.437 42.5724 275.994 42.4744 275.548 42.4954C274.998 42.4827 274.453 42.609 273.965 42.8625C273.514 43.1068 273.148 43.4836 272.919 43.9418C272.659 44.4748 272.533 45.0626 272.551 45.6549V50.3587C272.534 50.6132 272.574 50.8682 272.669 51.1051C272.72 51.1879 272.789 51.2578 272.872 51.3096C272.955 51.3613 273.048 51.3935 273.145 51.4037L274.262 51.6166V52.8966L268.132 52.9039Z" fill="var(--ildh-wordmark-text-colour)"/>
        <path d="M105.309 72.2475H98.3392L98.0938 78.3169L100.259 78.6497L100.114 79.9077H93.395L93.5374 78.6497L95.4645 78.3414L96.0095 64.9446L93.9891 64.553L94.1315 63.3293H100.721L100.6 64.5848L98.6363 64.9642L98.3908 70.5931H105.36L105.621 64.9984L103.657 64.5946L103.777 63.3391H110.363L110.221 64.5946L108.223 64.9984L107.668 78.3169L109.926 78.6252L109.784 79.9077H103.004L103.146 78.6497L105.049 78.3414L105.309 72.2475Z" fill="var(--ildh-wordmark-text-colour)"/>
        <path d="M122.196 77.5583C122.162 77.8283 122.199 78.1026 122.304 78.3537C122.357 78.4331 122.431 78.4962 122.518 78.536C122.604 78.5757 122.701 78.5906 122.795 78.5789C122.99 78.5742 123.182 78.5257 123.355 78.4369C123.57 78.332 123.773 78.2049 123.961 78.0576L124.509 79.1002C124.288 79.2925 124.049 79.463 123.794 79.6092C123.485 79.7957 123.156 79.9476 122.813 80.062C122.463 80.1781 122.098 80.2376 121.73 80.2382C121.351 80.2505 120.975 80.1564 120.647 79.9665C120.348 79.7764 120.125 79.4869 120.019 79.1491C119.885 78.7035 119.852 78.2336 119.923 77.7737L120.35 73.3685L120.161 73.344L119.614 75.3582C119.43 76.0502 119.208 76.7316 118.948 77.3993C118.739 77.9462 118.459 78.4637 118.116 78.9386C117.821 79.3487 117.433 79.684 116.985 79.9176C116.394 80.1805 115.746 80.2891 115.102 80.233C114.457 80.1769 113.838 79.958 113.302 79.597C112.718 79.1331 112.28 78.5111 112.04 77.8055C111.75 76.9676 111.61 76.0854 111.625 75.1991C111.613 74.1494 111.753 73.1033 112.04 72.0934C112.288 71.2204 112.687 70.3972 113.219 69.6608C113.693 69.0025 114.311 68.4595 115.025 68.0724C115.736 67.699 116.53 67.5081 117.333 67.5169C118.311 67.5131 119.277 67.7236 120.164 68.1336L121.995 67.5634L122.518 67.8081L122.196 77.5583ZM115.917 78.4834C116.224 78.4937 116.529 78.4201 116.798 78.2705C117.098 78.0573 117.34 77.7719 117.5 77.4409C117.799 76.8714 118.046 76.2758 118.237 75.6617C118.489 74.8883 118.782 73.8767 119.115 72.6269L119.972 69.5702C119.636 69.4037 119.281 69.2796 118.914 69.2007C118.506 69.1013 118.087 69.0496 117.667 69.0465C117.152 69.0382 116.65 69.201 116.238 69.509C115.794 69.8566 115.433 70.2979 115.18 70.8012C114.865 71.4198 114.637 72.0786 114.503 72.7591C114.336 73.5584 114.254 74.3729 114.257 75.1893C114.242 75.8304 114.302 76.4711 114.436 77.0982C114.509 77.4965 114.7 77.8638 114.984 78.153C115.241 78.3772 115.575 78.4953 115.917 78.4834Z" fill="var(--ildh-wordmark-text-colour)"/>
        <path d="M138.868 79.1C138.621 79.2918 138.355 79.4559 138.072 79.5894C137.716 79.7691 137.346 79.9197 136.965 80.0397C136.605 80.1591 136.228 80.2227 135.848 80.2282C135.166 80.2282 134.662 80.052 134.338 79.6947C134.014 79.3373 133.882 78.821 133.946 78.143L134.54 71.4789C134.618 70.7366 134.586 70.2267 134.444 69.9493C134.376 69.8153 134.27 69.7044 134.139 69.6308C134.008 69.5571 133.858 69.524 133.707 69.5357C133.432 69.5258 133.163 69.6232 132.959 69.8074C132.722 70.0469 132.54 70.3339 132.424 70.6493C132.264 71.0286 132.075 71.5352 131.852 72.1666L129.212 79.8978H126.691L127.062 70.1378C127.092 69.903 127.055 69.6645 126.954 69.4501C126.899 69.3736 126.825 69.3133 126.738 69.2758C126.652 69.2383 126.556 69.225 126.463 69.2372C126.272 69.2422 126.083 69.2786 125.903 69.3448C125.69 69.4158 125.412 69.5137 125.108 69.641L124.678 68.312C124.925 68.1854 125.179 68.0743 125.439 67.9792C125.793 67.8482 126.155 67.7379 126.522 67.6488C126.883 67.5572 127.254 67.5095 127.627 67.5069C128.34 67.5069 128.84 67.7157 129.127 68.1334C129.413 68.5511 129.516 69.1564 129.436 69.9493L128.793 76.3491L128.984 76.3981L130.703 71.1583C130.923 70.4486 131.218 69.7644 131.584 69.1172C131.856 68.608 132.268 68.1863 132.771 67.9012C133.274 67.6161 133.849 67.4794 134.427 67.5069C135.157 67.5069 135.719 67.657 136.113 67.9572C136.534 68.2939 136.821 68.7682 136.923 69.2959C137.073 70.0202 137.106 70.7639 137.019 71.4985L136.528 77.5924C136.487 77.8545 136.507 78.1226 136.587 78.3755C136.635 78.4604 136.708 78.5291 136.795 78.5727C136.883 78.6163 136.981 78.6329 137.078 78.6203C137.287 78.6115 137.493 78.5634 137.684 78.4783C137.918 78.3806 138.137 78.2531 138.337 78.099L138.868 79.1Z" fill="var(--ildh-wordmark-text-colour)"/>
        <path d="M150.713 77.6316C150.683 77.8813 150.72 78.1343 150.818 78.3658C150.875 78.4461 150.953 78.5095 151.044 78.5492C151.134 78.5888 151.233 78.6033 151.331 78.5909C151.555 78.5861 151.775 78.5291 151.972 78.4245C152.201 78.3107 152.423 78.184 152.637 78.0452L153.163 79.0241C152.934 79.2207 152.688 79.3953 152.426 79.5454C152.095 79.7435 151.745 79.9075 151.381 80.0349C151.014 80.1665 150.628 80.2344 150.239 80.2355C149.493 80.2355 148.989 80.0022 148.729 79.5356C148.454 78.9909 148.357 78.3734 148.454 77.7711L148.859 73.3659L148.67 73.3414L148.098 75.4755C147.91 76.1558 147.704 76.7881 147.48 77.3722C147.282 77.9128 147.01 78.4235 146.672 78.8895C146.368 79.3044 145.974 79.645 145.518 79.8856C144.997 80.138 144.421 80.2598 143.841 80.2404C143.272 80.2522 142.71 80.1138 142.211 79.8391C141.742 79.568 141.343 79.1897 141.048 78.7353C140.722 78.2313 140.488 77.6737 140.358 77.0883C140.202 76.4118 140.126 75.7193 140.132 75.0252C140.12 73.9996 140.256 72.9777 140.535 71.9905C140.775 71.1344 141.166 70.3274 141.688 69.6068C142.169 68.9423 142.805 68.4042 143.54 68.0389C144.276 67.6735 145.089 67.4918 145.911 67.5094C146.436 67.5082 146.958 67.5715 147.467 67.6978C147.873 67.7918 148.268 67.9271 148.646 68.1016L148.835 63.5006L146.576 63.0112L146.743 61.7312H150.786L151.191 62.0396L150.713 77.6316ZM144.409 78.4832C144.721 78.4894 145.03 78.4116 145.302 78.2581C145.621 78.0505 145.876 77.7592 146.039 77.4162C146.324 76.8516 146.563 76.2648 146.753 75.6615C147.007 74.9028 147.3 73.9239 147.632 72.7247L148.489 69.5431C148.274 69.4342 148.046 69.352 147.811 69.2984C147.534 69.2274 147.251 69.1687 146.967 69.1197C146.715 69.0759 146.461 69.0522 146.206 69.0488C145.677 69.041 145.161 69.2032 144.733 69.5113C144.279 69.852 143.912 70.2948 143.662 70.8035C143.358 71.4127 143.135 72.0584 142.997 72.7247C142.831 73.5043 142.749 74.2992 142.751 75.0961C142.751 76.2023 142.891 77.0442 143.169 77.6218C143.439 78.1969 143.854 78.4832 144.409 78.4832Z" fill="var(--ildh-wordmark-text-colour)"/>
        <path d="M159.892 80.2383C159.462 80.2365 159.034 80.2087 158.608 80.1551C158.148 80.098 157.691 80.0163 157.24 79.9104C156.814 79.8153 156.394 79.6968 155.981 79.5555C155.648 79.4456 155.325 79.3072 155.016 79.1419L155.564 63.4911L153.401 63.0016L153.543 61.7217H157.609L157.989 61.9811L157.704 69.8297L157.039 75.4024L157.228 75.4489L158.109 72.1768C158.331 71.2522 158.66 70.3568 159.091 69.5091C159.396 68.8972 159.854 68.3744 160.422 67.9918C160.993 67.6521 161.65 67.4823 162.315 67.5023C163.052 67.47 163.778 67.6911 164.372 68.1288C164.931 68.5912 165.343 69.2049 165.56 69.8958C165.838 70.7656 165.971 71.6751 165.953 72.5879C165.953 74.2309 165.691 75.6218 165.167 76.7606C164.717 77.8127 163.969 78.7109 163.014 79.345C162.084 79.9413 160.998 80.252 159.892 80.2383ZM161.794 69.3085C161.485 69.3002 161.179 69.3692 160.903 69.5091C160.595 69.7142 160.352 70.0018 160.201 70.3388C159.91 70.9164 159.664 71.5153 159.465 72.1303C159.203 72.9036 158.889 73.9307 158.524 75.2115L157.692 78.1752C157.99 78.3025 158.296 78.4096 158.608 78.4958C159.015 78.6051 159.436 78.657 159.857 78.65C160.386 78.6623 160.904 78.4996 161.33 78.1874C161.783 77.8427 162.153 77.4011 162.413 76.8952C162.735 76.288 162.967 75.6377 163.103 74.9643C163.268 74.1961 163.35 73.4126 163.348 72.6271C163.35 72.0848 163.318 71.5429 163.252 71.0045C163.213 70.5677 163.067 70.1474 162.825 69.7808C162.708 69.6216 162.551 69.4947 162.371 69.4121C162.191 69.3295 161.992 69.2939 161.794 69.3085Z" fill="var(--ildh-wordmark-text-colour)"/>
        <path d="M173.283 80.2381C172.288 80.2732 171.305 80.018 170.453 79.5039C169.686 79.0029 169.087 78.2843 168.734 77.4408C168.326 76.4595 168.125 75.4047 168.145 74.3425C168.142 73.4709 168.25 72.6025 168.467 71.7581C168.662 70.9738 169.005 70.2337 169.478 69.5775C169.95 68.933 170.575 68.4151 171.297 68.0699C172.15 67.6785 173.081 67.4884 174.02 67.5144C175.004 67.4774 175.978 67.7238 176.826 68.2241C177.597 68.7178 178.205 69.4268 178.574 70.2627C178.999 71.2462 179.206 72.3099 179.18 73.3807C179.184 74.2522 179.077 75.1206 178.861 75.9651C178.661 76.7568 178.314 77.504 177.837 78.1677C177.36 78.8146 176.731 79.3355 176.006 79.685C175.153 80.0751 174.221 80.2644 173.283 80.2381ZM173.45 78.7208C174.257 78.7208 174.875 78.4679 175.304 77.9621C175.766 77.3844 176.074 76.6988 176.197 75.97C176.365 75.1113 176.447 74.2383 176.443 73.3635C176.451 72.6133 176.368 71.8647 176.197 71.134C176.077 70.5552 175.797 70.0214 175.39 69.5922C175.176 69.3953 174.925 69.2435 174.651 69.1459C174.377 69.0483 174.087 69.007 173.796 69.0244C173.291 69.0102 172.794 69.1586 172.38 69.4478C171.983 69.7459 171.67 70.1425 171.474 70.598C171.238 71.1437 171.082 71.7208 171.012 72.3112C170.921 73.0147 170.877 73.7236 170.88 74.433C170.867 75.1886 170.96 75.9422 171.155 76.6724C171.294 77.2385 171.581 77.7577 171.987 78.1775C172.183 78.3627 172.414 78.5064 172.668 78.5998C172.921 78.6932 173.19 78.7344 173.46 78.7208H173.45Z" fill="var(--ildh-wordmark-text-colour)"/>
        <path d="M186.471 80.2383C185.476 80.2733 184.492 80.0182 183.641 79.5041C182.873 79.004 182.274 78.2851 181.922 77.4409C181.507 76.4613 181.3 75.4061 181.316 74.3426C181.313 73.471 181.421 72.6026 181.637 71.7582C181.834 70.9744 182.177 70.2346 182.649 69.5776C183.121 68.9332 183.746 68.4152 184.468 68.0701C185.325 67.674 186.263 67.4814 187.208 67.5072C188.189 67.4749 189.16 67.7237 190.004 68.2243C190.775 68.7179 191.382 69.427 191.752 70.2629C192.179 71.2478 192.387 72.313 192.363 73.3857C192.366 74.2573 192.258 75.1257 192.041 75.9701C191.844 76.7625 191.496 77.5101 191.018 78.1727C190.541 78.8202 189.912 79.3411 189.186 79.69C188.335 80.0776 187.406 80.2652 186.471 80.2383ZM186.638 78.7209C187.445 78.7209 188.064 78.468 188.494 77.9622C188.955 77.3837 189.261 76.6984 189.385 75.9701C189.554 75.1116 189.636 74.2385 189.631 73.3637C189.637 72.6135 189.555 71.8651 189.385 71.1341C189.263 70.5556 188.982 70.022 188.575 69.5923C188.362 69.3953 188.11 69.2434 187.837 69.1459C187.563 69.0483 187.272 69.007 186.982 69.0245C186.474 69.0057 185.974 69.1508 185.555 69.4381C185.158 69.7357 184.846 70.1324 184.652 70.5884C184.414 71.1335 184.257 71.7108 184.188 72.3015C184.097 73.0051 184.054 73.714 184.058 74.4234C184.046 75.1787 184.137 75.9322 184.33 76.6627C184.47 77.2288 184.757 77.7481 185.163 78.1678C185.357 78.3534 185.586 78.498 185.838 78.5931C186.089 78.6881 186.357 78.7316 186.626 78.7209H186.638Z" fill="var(--ildh-wordmark-text-colour)"/>
        <path d="M195.555 63.4984L193.365 63.009L193.532 61.729H197.575L197.955 61.9884L197.464 72.7298C198.105 72.6009 198.733 72.4184 199.342 72.1841C199.991 71.9312 200.613 71.6139 201.198 71.2369C201.657 70.9359 201.935 70.6324 202.018 70.3241C202.061 70.1836 202.052 70.0326 201.993 69.8981C201.934 69.7637 201.829 69.6544 201.697 69.5899L201.031 69.1861C201.095 68.7133 201.327 68.2791 201.684 67.9624C202.036 67.6751 202.48 67.5239 202.934 67.5365C203.158 67.5257 203.381 67.5659 203.587 67.6541C203.793 67.7423 203.976 67.8762 204.122 68.0456C204.407 68.3791 204.559 68.8046 204.552 69.2423C204.567 69.8336 204.359 70.409 203.97 70.8551C203.449 71.4039 202.852 71.8753 202.198 72.255C201.896 72.4435 201.613 72.605 201.353 72.7445C201.093 72.884 200.833 73.0113 200.58 73.1361L202.919 77.1791C203.136 77.5596 203.391 77.9171 203.68 78.2461C203.778 78.3581 203.899 78.448 204.034 78.5096C204.17 78.5712 204.317 78.6032 204.466 78.6034C204.699 78.6067 204.931 78.5582 205.143 78.4615L205.725 78.1752L206.273 79.1541C206.068 79.345 205.841 79.5095 205.595 79.6436C205.283 79.8178 204.954 79.9612 204.613 80.0718C204.244 80.1898 203.859 80.2493 203.472 80.2481C202.939 80.2702 202.414 80.1115 201.984 79.7977C201.511 79.3902 201.127 78.8905 200.855 78.3293L198.454 73.9241C198.262 73.9853 198.086 74.0416 197.919 74.0881C197.75 74.137 197.579 74.177 197.406 74.208L197.145 79.9226H194.818L195.555 63.4984Z" fill="var(--ildh-wordmark-text-colour)"/>
    </symbol>

    <symbol id="logo-idrc-wordmark" viewBox="0 0 289 74">
        <path d="M73,14.18a2.47,2.47,0,0,1,.19-1,1.9,1.9,0,0,1,.52-.67,1.92,1.92,0,0,1,.78-.36,4.58,4.58,0,0,1,1.88,0,2,2,0,0,1,.77.36,1.77,1.77,0,0,1,.53.68,2.73,2.73,0,0,1,0,2,1.8,1.8,0,0,1-.53.69,2,2,0,0,1-.77.36,4,4,0,0,1-1.88,0,1.92,1.92,0,0,1-.78-.36,1.86,1.86,0,0,1-.52-.69A2.49,2.49,0,0,1,73,14.18Zm4.66,20.61H73.19V18.42h4.47Z"/>
        <path d="M96,34.79H91.5V25.23a5.19,5.19,0,0,0-.5-2.66,1.86,1.86,0,0,0-1.71-.89,2.77,2.77,0,0,0-1.46.35,2.49,2.49,0,0,0-.93,1,5.48,5.48,0,0,0-.49,1.69A15,15,0,0,0,86.26,27v7.7H81.75V18.42h3.42l.6,2.09H86a4.23,4.23,0,0,1,.85-1.08A4.84,4.84,0,0,1,88,18.68a5.14,5.14,0,0,1,1.27-.43,7,7,0,0,1,3.56.2,4.26,4.26,0,0,1,1.69,1.08A4.69,4.69,0,0,1,95.6,21.4a8.32,8.32,0,0,1,.4,2.71Z"/>
        <path d="M106.85,35.09a9.73,9.73,0,0,1-3.17-.49,6.17,6.17,0,0,1-2.42-1.5,6.51,6.51,0,0,1-1.53-2.61,11.65,11.65,0,0,1-.54-3.8,13.2,13.2,0,0,1,.55-4.09,6.71,6.71,0,0,1,1.55-2.6,5.88,5.88,0,0,1,2.42-1.42,11.11,11.11,0,0,1,3.14-.42,10.09,10.09,0,0,1,2.51.31,10.27,10.27,0,0,1,2.34.86l-1.29,3.4a15.42,15.42,0,0,0-1.86-.7,6.1,6.1,0,0,0-1.7-.27A2.5,2.5,0,0,0,104.5,23a7.43,7.43,0,0,0-.74,3.71,7,7,0,0,0,.74,3.63,2.49,2.49,0,0,0,2.3,1.18,7.55,7.55,0,0,0,2.31-.33,16.17,16.17,0,0,0,2.12-.85V34l-1,.47a9,9,0,0,1-1,.33,8,8,0,0,1-1.09.2Q107.49,35.07,106.85,35.09Z"/>
        <path d="M119,34.79h-4.47V12H119Z"/>
        <path d="M133.81,34.79l-.6-2.09H133a4.49,4.49,0,0,1-.87,1.07,4.58,4.58,0,0,1-1.11.74,5.62,5.62,0,0,1-1.27.44,7.1,7.1,0,0,1-1.38.14,6.47,6.47,0,0,1-2.18-.35,4.26,4.26,0,0,1-1.69-1.08,4.72,4.72,0,0,1-1.08-1.86,8.3,8.3,0,0,1-.38-2.71V18.42h4.46V28a5.2,5.2,0,0,0,.54,2.66,1.83,1.83,0,0,0,1.7.89,2.81,2.81,0,0,0,1.47-.36,2.42,2.42,0,0,0,.93-1,5.62,5.62,0,0,0,.49-1.7,14.94,14.94,0,0,0,.15-2.31v-7.7h4.46V34.79Z"/>
        <path d="M152.5,29.93a5.18,5.18,0,0,1-.47,2.26,4.33,4.33,0,0,1-1.33,1.61,5.9,5.9,0,0,1-2.1,1,10.62,10.62,0,0,1-2.75.33q-.81,0-1.5-.06a11.26,11.26,0,0,1-1.3-.16,12.18,12.18,0,0,1-1.19-.3,8.13,8.13,0,0,1-1.16-.44V30.44A12.42,12.42,0,0,0,142,31a13.39,13.39,0,0,0,1.36.43,11.78,11.78,0,0,0,1.31.29,6.64,6.64,0,0,0,1.18.1,4.2,4.2,0,0,0,1-.11,2,2,0,0,0,.7-.31,1.19,1.19,0,0,0,.39-.47,1.4,1.4,0,0,0,.13-.57,1.28,1.28,0,0,0-.1-.55,1.37,1.37,0,0,0-.43-.52,7.85,7.85,0,0,0-1-.61c-.44-.23-1-.51-1.75-.84s-1.25-.64-1.85-1a5.11,5.11,0,0,1-1.29-1.07,3.88,3.88,0,0,1-.76-1.34,6,6,0,0,1-.25-1.79,4.46,4.46,0,0,1,.44-2,4,4,0,0,1,1.25-1.43,5.35,5.35,0,0,1,1.94-.85,10.15,10.15,0,0,1,2.52-.29,10.93,10.93,0,0,1,2.79.34,13.77,13.77,0,0,1,2.71,1L151,22.62a18.45,18.45,0,0,0-2.12-.86,6.18,6.18,0,0,0-2-.34,2.15,2.15,0,0,0-1.31.32,1.07,1.07,0,0,0-.4.88,1.15,1.15,0,0,0,.1.52,1.33,1.33,0,0,0,.41.47,5.94,5.94,0,0,0,.87.53c.37.19.85.42,1.45.69s1.32.61,1.87.9a6.51,6.51,0,0,1,1.44,1,3.87,3.87,0,0,1,.92,1.34A4.53,4.53,0,0,1,152.5,29.93Z"/>
        <path d="M155.35,14.18a2.65,2.65,0,0,1,.19-1,1.9,1.9,0,0,1,.52-.67,2.06,2.06,0,0,1,.78-.36,4.32,4.32,0,0,1,.95-.1,4.2,4.2,0,0,1,.93.1,2,2,0,0,1,.77.36,1.82,1.82,0,0,1,.53.67,2.8,2.8,0,0,1,0,2.09,1.77,1.77,0,0,1-.53.68,2,2,0,0,1-.77.37,4.15,4.15,0,0,1-.93.11,4.33,4.33,0,0,1-.95-.11,1.88,1.88,0,0,1-.78-.37,1.82,1.82,0,0,1-.52-.68A2.73,2.73,0,0,1,155.35,14.18ZM160,34.79h-4.47V18.42H160Z"/>
        <path d="M168,34.79l-5.78-16.37h4.67l2.71,9.33a17.48,17.48,0,0,1,.43,1.73,12.63,12.63,0,0,1,.23,1.62h.09a10.08,10.08,0,0,1,.23-1.65c.12-.58.26-1.15.43-1.7l2.69-9.33h4.69L172.6,34.79Z"/>
        <path d="M187.21,35.09a9.9,9.9,0,0,1-3.24-.52,6.63,6.63,0,0,1-4.21-4.15,10.82,10.82,0,0,1-.59-3.7,12,12,0,0,1,.54-3.76,7.41,7.41,0,0,1,1.52-2.69,6.06,6.06,0,0,1,2.34-1.62,8.12,8.12,0,0,1,3-.54,8.41,8.41,0,0,1,2.94.49,6,6,0,0,1,2.26,1.4,6.52,6.52,0,0,1,1.41,2.34,9.47,9.47,0,0,1,.49,3.17v2.17h-10a5.37,5.37,0,0,0,.3,1.69,3.59,3.59,0,0,0,.76,1.27,3.21,3.21,0,0,0,1.19.8,4.14,4.14,0,0,0,1.59.28,13.33,13.33,0,0,0,1.41-.08,9.59,9.59,0,0,0,1.3-.24,9,9,0,0,0,1.24-.41c.43-.17.85-.35,1.26-.56v3.46a10.31,10.31,0,0,1-1.18.52,9.35,9.35,0,0,1-1.25.36,11.3,11.3,0,0,1-1.42.21A10.67,10.67,0,0,1,187.21,35.09Zm-.57-13.8a2.56,2.56,0,0,0-2,.83,4.14,4.14,0,0,0-.9,2.62h5.7a5.8,5.8,0,0,0-.19-1.37,3.45,3.45,0,0,0-.53-1.09,2.57,2.57,0,0,0-.88-.73A2.62,2.62,0,0,0,186.64,21.29Z"/>
        <path d="M206.06,35.09A4.82,4.82,0,0,1,202,32.94a8.24,8.24,0,0,1-1.17-2.64,14.17,14.17,0,0,1-.42-3.67,14.37,14.37,0,0,1,.42-3.69A8.18,8.18,0,0,1,202,20.27a5,5,0,0,1,1.84-1.62,5.2,5.2,0,0,1,2.36-.54,5.88,5.88,0,0,1,1.45.18,4.16,4.16,0,0,1,1.18.52,4.67,4.67,0,0,1,.95.76,6.13,6.13,0,0,1,.74.94h.14c-.06-.38-.11-.77-.16-1.16s-.09-.68-.12-1.06a8.34,8.34,0,0,1,0-1V12h4.46V34.79h-3.41l-.86-2.12h-.19a7.24,7.24,0,0,1-.71.94,4,4,0,0,1-.91.77,4.55,4.55,0,0,1-1.17.52A5.63,5.63,0,0,1,206.06,35.09Zm1.63-3.56a3.14,3.14,0,0,0,1.35-.27,2.29,2.29,0,0,0,.9-.82,4.2,4.2,0,0,0,.51-1.37,10.32,10.32,0,0,0,.18-1.92v-.49a13.52,13.52,0,0,0-.14-2.11A5,5,0,0,0,210,23a2.44,2.44,0,0,0-.91-1,3.13,3.13,0,0,0-1.44-.32A2.17,2.17,0,0,0,205.6,23a8.16,8.16,0,0,0-.66,3.68,7.8,7.8,0,0,0,.66,3.63A2.23,2.23,0,0,0,207.69,31.53Z"/>
        <path d="M226.15,35.09a9.84,9.84,0,0,1-3.23-.52A6.74,6.74,0,0,1,220.37,33a7.05,7.05,0,0,1-1.66-2.61,10.37,10.37,0,0,1-.6-3.7,11.39,11.39,0,0,1,.55-3.76,7.39,7.39,0,0,1,1.51-2.69,6.09,6.09,0,0,1,2.35-1.62,9,9,0,0,1,6,0,5.82,5.82,0,0,1,2.2,1.38,6.52,6.52,0,0,1,1.41,2.34,9.73,9.73,0,0,1,.49,3.17v2.17h-10a5.37,5.37,0,0,0,.3,1.69,3.5,3.5,0,0,0,.76,1.27,3.17,3.17,0,0,0,1.18.8,4.14,4.14,0,0,0,1.59.28,13.52,13.52,0,0,0,1.42-.08,9.45,9.45,0,0,0,1.29-.24,9.13,9.13,0,0,0,1.25-.41c.43-.17.85-.35,1.26-.56v3.46a10.31,10.31,0,0,1-1.18.52,10.18,10.18,0,0,1-2.67.57A10.72,10.72,0,0,1,226.15,35.09Zm-.57-13.8a2.56,2.56,0,0,0-2,.83,4.16,4.16,0,0,0-.9,2.62h5.7a5.33,5.33,0,0,0-.19-1.37,3,3,0,0,0-.53-1.09,2.45,2.45,0,0,0-.87-.73,2.67,2.67,0,0,0-1.21-.26Z"/>
        <path d="M247,29.93a5.17,5.17,0,0,1-.46,2.26,4.36,4.36,0,0,1-1.34,1.61,5.78,5.78,0,0,1-2.09,1,10.69,10.69,0,0,1-2.76.33,12,12,0,0,1-1.49-.06,11.26,11.26,0,0,1-1.3-.16,12.18,12.18,0,0,1-1.19-.3,8.13,8.13,0,0,1-1.16-.44V30.44a14.4,14.4,0,0,0,2.65,1c.45.12.89.22,1.32.29a6.6,6.6,0,0,0,1.17.1,4.2,4.2,0,0,0,1-.11,2.2,2.2,0,0,0,.7-.31,1.19,1.19,0,0,0,.39-.47,1.39,1.39,0,0,0,.12-.57,1.71,1.71,0,0,0-.09-.55,1.37,1.37,0,0,0-.43-.52,7.85,7.85,0,0,0-1-.61c-.44-.23-1-.51-1.75-.84a12.18,12.18,0,0,1-1.86-1,5.48,5.48,0,0,1-1.28-1.07,3.88,3.88,0,0,1-.76-1.34,5.7,5.7,0,0,1-.25-1.79,4.46,4.46,0,0,1,.44-2,3.91,3.91,0,0,1,1.25-1.43,5.35,5.35,0,0,1,1.94-.85,10.15,10.15,0,0,1,2.52-.29,10.93,10.93,0,0,1,2.79.34,14.7,14.7,0,0,1,2.71,1l-1.35,3.16a17.89,17.89,0,0,0-2.13-.86,6.18,6.18,0,0,0-2-.34,2.15,2.15,0,0,0-1.31.32,1.07,1.07,0,0,0-.4.88,1.15,1.15,0,0,0,.1.52,1.33,1.33,0,0,0,.41.47,5.46,5.46,0,0,0,.87.53c.37.19.85.42,1.45.69s1.31.61,1.87.9a6.51,6.51,0,0,1,1.44,1,4,4,0,0,1,.92,1.34A4.82,4.82,0,0,1,247,29.93Z"/>
        <path d="M249.88,14.18a2.65,2.65,0,0,1,.19-1,1.9,1.9,0,0,1,.52-.67,1.92,1.92,0,0,1,.78-.36,4.47,4.47,0,0,1,1.88,0,2,2,0,0,1,.77.36,1.82,1.82,0,0,1,.53.67,2.8,2.8,0,0,1,0,2.09A1.77,1.77,0,0,1,254,16a2,2,0,0,1-.77.37,4.07,4.07,0,0,1-1.88,0,1.88,1.88,0,0,1-.78-.37,1.66,1.66,0,0,1-.52-.68A2.73,2.73,0,0,1,249.88,14.18Zm4.66,20.61h-4.47V18.42h4.47Z"/>
        <path d="M272.29,18.44v2.44l-2.39.74a4,4,0,0,1,.41,1,5.54,5.54,0,0,1,.12,1.15A6.32,6.32,0,0,1,270,26a4.69,4.69,0,0,1-1.17,1.77A5.16,5.16,0,0,1,266.91,29a8.15,8.15,0,0,1-2.73.41h-.73a3.68,3.68,0,0,1-.58-.08,2.07,2.07,0,0,0-.46.52,1.13,1.13,0,0,0-.17.65.65.65,0,0,0,.19.49,1.54,1.54,0,0,0,.49.3,3,3,0,0,0,.72.14,6,6,0,0,0,.85,0H267a7.64,7.64,0,0,1,2.13.27,4.26,4.26,0,0,1,1.59.83,3.79,3.79,0,0,1,1,1.41,5.48,5.48,0,0,1,.35,2,5.65,5.65,0,0,1-.56,2.52,5.16,5.16,0,0,1-1.66,1.9,8.44,8.44,0,0,1-2.75,1.2,15.09,15.09,0,0,1-3.79.42,12,12,0,0,1-2.92-.32,6.32,6.32,0,0,1-2.08-.9,4,4,0,0,1-1.25-1.43,4.14,4.14,0,0,1-.42-1.89,3.72,3.72,0,0,1,1.18-2.66A4.4,4.4,0,0,1,259,34a7.82,7.82,0,0,1,1.34-.45,2.55,2.55,0,0,1-.61-.37,2.76,2.76,0,0,1-.54-.54,3.11,3.11,0,0,1-.4-.68,2.08,2.08,0,0,1-.15-.78,2.45,2.45,0,0,1,.14-.85,2.37,2.37,0,0,1,.4-.71,4.36,4.36,0,0,1,.66-.63c.26-.19.56-.39.89-.6a4.37,4.37,0,0,1-2-1.78,5.56,5.56,0,0,1-.75-2.9,6.12,6.12,0,0,1,.41-2.36,4.76,4.76,0,0,1,1.2-1.77,5.17,5.17,0,0,1,2-1.1,8.52,8.52,0,0,1,2.7-.38h.65l.73.09.67.11.48.1ZM260.57,37.11a1.74,1.74,0,0,0,.15.71,1.48,1.48,0,0,0,.51.6,2.65,2.65,0,0,0,.92.42,5.6,5.6,0,0,0,1.41.16,7.29,7.29,0,0,0,3.44-.65,1.94,1.94,0,0,0,1.15-1.73,1.2,1.2,0,0,0-.71-1.23,6,6,0,0,0-2.23-.31h-2.07a4,4,0,0,0-.85.1,2.49,2.49,0,0,0-.83.33,2,2,0,0,0-.64.62A1.79,1.79,0,0,0,260.57,37.11Zm1.61-13.33a3.55,3.55,0,0,0,.5,2.06,1.7,1.7,0,0,0,1.51.73,1.67,1.67,0,0,0,1.52-.73,3.79,3.79,0,0,0,.47-2.06,4.25,4.25,0,0,0-.46-2.1,1.63,1.63,0,0,0-1.53-.77C262.85,20.91,262.18,21.86,262.18,23.78Z"/>
        <path d="M289,34.79h-4.47V25.23a5.32,5.32,0,0,0-.53-2.66,1.88,1.88,0,0,0-1.71-.89,2.77,2.77,0,0,0-1.46.35,2.49,2.49,0,0,0-.93,1,5.22,5.22,0,0,0-.49,1.69,15,15,0,0,0-.15,2.32v7.7h-4.47V18.42h3.41l.61,2.09h.24a4.5,4.5,0,0,1,.86-1.08,4.92,4.92,0,0,1,1.11-.75,5.14,5.14,0,0,1,1.27-.43,7,7,0,0,1,3.56.2,4.26,4.26,0,0,1,1.69,1.08,5.09,5.09,0,0,1,1.08,1.87,8.58,8.58,0,0,1,.38,2.71V34.79Z"/>
        <path d="M80.11,52.33h1a6.85,6.85,0,0,1,.91.11l-.35,2.46-.85-.13a7.34,7.34,0,0,0-.81-.05,3.71,3.71,0,0,0-3,1.44,5.28,5.28,0,0,0-.85,1.67,7.18,7.18,0,0,0-.3,2.16v8.68H73.15V52.62h2.17l.32,3h.11c.25-.42.51-.83.79-1.22a5.87,5.87,0,0,1,.93-1,4.39,4.39,0,0,1,1.17-.72A3.91,3.91,0,0,1,80.11,52.33Z"/>
        <path d="M90.73,69a7.78,7.78,0,0,1-2.94-.54,6.4,6.4,0,0,1-2.3-1.58A7.26,7.26,0,0,1,84,64.3a10.82,10.82,0,0,1-.53-3.52A12.23,12.23,0,0,1,84,57.22a8.11,8.11,0,0,1,1.37-2.66,5.76,5.76,0,0,1,2.1-1.66,6.71,6.71,0,0,1,5.31,0,5.56,5.56,0,0,1,2,1.46A6.67,6.67,0,0,1,96,56.64a9.41,9.41,0,0,1,.43,2.93v1.66H86.23a6.7,6.7,0,0,0,1.2,4.16,4.1,4.1,0,0,0,3.33,1.33,12.75,12.75,0,0,0,1.38-.07q.61-.08,1.23-.21A9.4,9.4,0,0,0,94.52,66c.37-.14.75-.3,1.13-.47V67.9a11.61,11.61,0,0,1-1.15.48,9.45,9.45,0,0,1-1.15.34,10.46,10.46,0,0,1-1.23.19A6.87,6.87,0,0,1,90.73,69Zm-.66-14.46a3.29,3.29,0,0,0-2.64,1.14A5.69,5.69,0,0,0,86.29,59H93.5a8,8,0,0,0-.2-1.82,4.08,4.08,0,0,0-.61-1.42,2.93,2.93,0,0,0-1.07-.91A3.47,3.47,0,0,0,90.07,54.54Z"/>
        <path d="M109.6,64.3a4.76,4.76,0,0,1-.42,2A3.92,3.92,0,0,1,108,67.82a5.52,5.52,0,0,1-1.92.89,10.31,10.31,0,0,1-2.54.29,12.6,12.6,0,0,1-2.74-.26,7.1,7.1,0,0,1-2-.75V65.56c.3.15.64.31,1,.46a12.13,12.13,0,0,0,2.44.69,8,8,0,0,0,1.29.11,7.36,7.36,0,0,0,1.62-.16,3.31,3.31,0,0,0,1.09-.47,1.78,1.78,0,0,0,.6-.73,2.31,2.31,0,0,0,.19-1,2.52,2.52,0,0,0-.14-.82,2.13,2.13,0,0,0-.54-.72,5.54,5.54,0,0,0-1.06-.73,18.38,18.38,0,0,0-1.73-.82c-.73-.3-1.33-.6-1.89-.89a6.8,6.8,0,0,1-1.43-1,3.78,3.78,0,0,1-.9-1.26,4.5,4.5,0,0,1,.08-3.51,3.78,3.78,0,0,1,1.14-1.34,5.25,5.25,0,0,1,1.76-.82,8.33,8.33,0,0,1,2.28-.28,9.9,9.9,0,0,1,2.6.31,12.71,12.71,0,0,1,2.24.8l-.93,2.16a16,16,0,0,0-2-.74,6.8,6.8,0,0,0-2-.32,4.09,4.09,0,0,0-2.22.49,1.6,1.6,0,0,0-.71,1.4,2.31,2.31,0,0,0,.16.9,2.11,2.11,0,0,0,.58.71,6,6,0,0,0,1.1.69c.46.23,1,.48,1.72.77a20,20,0,0,1,1.88.87,6.94,6.94,0,0,1,1.41,1,4,4,0,0,1,.9,1.25A4.32,4.32,0,0,1,109.6,64.3Z"/>
        <path d="M119.42,69a7.78,7.78,0,0,1-2.94-.54,6.4,6.4,0,0,1-2.3-1.58,7.24,7.24,0,0,1-1.48-2.58,10.82,10.82,0,0,1-.53-3.52,12,12,0,0,1,.48-3.56A8.06,8.06,0,0,1,114,54.56a5.76,5.76,0,0,1,2.1-1.66,6.3,6.3,0,0,1,2.7-.57,6.15,6.15,0,0,1,2.61.52,5.56,5.56,0,0,1,2,1.46,6.67,6.67,0,0,1,1.24,2.28,9.41,9.41,0,0,1,.43,2.93v1.66H114.92a6.7,6.7,0,0,0,1.2,4.16,4.1,4.1,0,0,0,3.33,1.33,12.75,12.75,0,0,0,1.38-.07q.61-.07,1.23-.21a7.67,7.67,0,0,0,1.15-.36c.37-.14.75-.3,1.13-.47v2.37a11.61,11.61,0,0,1-1.15.48,9.45,9.45,0,0,1-1.15.34,10.46,10.46,0,0,1-1.23.19A10.25,10.25,0,0,1,119.42,69Zm-.66-14.46a3.29,3.29,0,0,0-2.64,1.14A5.74,5.74,0,0,0,115,59h7.21a8,8,0,0,0-.2-1.82,4.08,4.08,0,0,0-.61-1.42,2.93,2.93,0,0,0-1.07-.91A3.53,3.53,0,0,0,118.76,54.54Z"/>
        <path d="M137.53,68.71,137,66.48h-.12a8.33,8.33,0,0,1-1,1.14,4.7,4.7,0,0,1-1,.78,4.81,4.81,0,0,1-1.27.45A8.17,8.17,0,0,1,132,69a5.88,5.88,0,0,1-1.86-.29,3.85,3.85,0,0,1-1.47-.87,4.12,4.12,0,0,1-1-1.5,5.92,5.92,0,0,1-.35-2.13A4.37,4.37,0,0,1,129,60.52a9,9,0,0,1,5.15-1.41l2.7-.1V58a5.36,5.36,0,0,0-.22-1.64A2.44,2.44,0,0,0,136,55.3a2.2,2.2,0,0,0-1-.58,4.4,4.4,0,0,0-1.35-.18,7.27,7.27,0,0,0-2.27.35,14.64,14.64,0,0,0-2,.85l-.94-2a12.47,12.47,0,0,1,2.42-1,9.83,9.83,0,0,1,2.8-.41,10.17,10.17,0,0,1,2.58.3,4.29,4.29,0,0,1,1.8.95,4,4,0,0,1,1.07,1.66,7.53,7.53,0,0,1,.35,2.45v11Zm-4.89-1.86a4.89,4.89,0,0,0,1.65-.28,3.59,3.59,0,0,0,1.32-.84,4,4,0,0,0,.87-1.42,5.9,5.9,0,0,0,.32-2V60.84l-2.1.1a10.23,10.23,0,0,0-2.21.3,3.79,3.79,0,0,0-1.43.65,2.37,2.37,0,0,0-.77,1,3.6,3.6,0,0,0-.23,1.34,2.51,2.51,0,0,0,.71,2A2.7,2.7,0,0,0,132.64,66.85Z"/>
        <path d="M150.7,52.33h1a6.85,6.85,0,0,1,.91.11l-.35,2.46-.84-.13a7.52,7.52,0,0,0-.82-.05,3.92,3.92,0,0,0-1.68.37,3.77,3.77,0,0,0-1.31,1.07,5.28,5.28,0,0,0-.85,1.67A7,7,0,0,0,146.4,60v8.68h-2.66V52.62h2.17l.32,3h.12a14,14,0,0,1,.78-1.22,5.57,5.57,0,0,1,.94-1,4.1,4.1,0,0,1,1.16-.72A3.91,3.91,0,0,1,150.7,52.33Z"/>
        <path d="M161.15,69a8.18,8.18,0,0,1-2.77-.46,5.68,5.68,0,0,1-2.24-1.47,7.1,7.1,0,0,1-1.49-2.56,11.39,11.39,0,0,1-.55-3.76,12,12,0,0,1,.56-3.9,6.9,6.9,0,0,1,1.53-2.61,5.78,5.78,0,0,1,2.28-1.45,8.35,8.35,0,0,1,2.8-.46,9.84,9.84,0,0,1,2.23.25,8.29,8.29,0,0,1,1.82.61l-.79,2.26c-.22-.1-.47-.19-.74-.29a7.59,7.59,0,0,0-.85-.24,6.72,6.72,0,0,0-.87-.18,5.29,5.29,0,0,0-.8-.07,3.84,3.84,0,0,0-3.36,1.48,7.92,7.92,0,0,0-1,4.57A7.55,7.55,0,0,0,158,65.24a3.74,3.74,0,0,0,3.23,1.43,7.76,7.76,0,0,0,2.14-.27,10.77,10.77,0,0,0,1.75-.64v2.38a7.18,7.18,0,0,1-1.69.64A9,9,0,0,1,161.15,69Z"/>
        <path d="M178.33,68.71V58.35a4.48,4.48,0,0,0-.77-2.86,2.94,2.94,0,0,0-2.41-1,4.72,4.72,0,0,0-2,.38A3.13,3.13,0,0,0,171.86,56a4.88,4.88,0,0,0-.71,1.83,13,13,0,0,0-.21,2.49v8.34h-2.67V45.91H171v6.77l-.12,2.11H171a4.35,4.35,0,0,1,.87-1.09,5.65,5.65,0,0,1,1.11-.77,4.81,4.81,0,0,1,1.27-.45,6.41,6.41,0,0,1,1.38-.15,5.4,5.4,0,0,1,4,1.4A6.23,6.23,0,0,1,181,58.2V68.71Z"/>
        <path d="M197.4,69.07a8.43,8.43,0,0,1-2.77-.46,5.68,5.68,0,0,1-2.24-1.47,7,7,0,0,1-1.5-2.56,11.42,11.42,0,0,1-.54-3.76,12,12,0,0,1,.56-3.9,6.9,6.9,0,0,1,1.53-2.61,5.87,5.87,0,0,1,2.28-1.46,8.54,8.54,0,0,1,2.79-.45,9.93,9.93,0,0,1,2.24.25,7.8,7.8,0,0,1,1.82.61l-.79,2.26c-.22-.1-.47-.19-.75-.29s-.55-.17-.85-.25a7.25,7.25,0,0,0-.86-.17,4.43,4.43,0,0,0-.81-.07,3.81,3.81,0,0,0-3.35,1.48,7.86,7.86,0,0,0-1.06,4.57,7.63,7.63,0,0,0,1.07,4.52,3.74,3.74,0,0,0,3.23,1.43,7.76,7.76,0,0,0,2.14-.27,10.77,10.77,0,0,0,1.75-.64V68.2a6.8,6.8,0,0,1-1.69.65A9,9,0,0,1,197.4,69.07Z"/>
        <path d="M210.68,69.07a7.67,7.67,0,0,1-3-.54,6.18,6.18,0,0,1-2.29-1.59A7.07,7.07,0,0,1,204,64.37a11.08,11.08,0,0,1-.52-3.52,12,12,0,0,1,.48-3.56,7.81,7.81,0,0,1,1.36-2.66,5.76,5.76,0,0,1,2.1-1.66,6.3,6.3,0,0,1,2.7-.57,6.15,6.15,0,0,1,2.61.52,5.56,5.56,0,0,1,2,1.46A6.62,6.62,0,0,1,216,56.65a9.43,9.43,0,0,1,.43,2.94v1.66H206.18a6.64,6.64,0,0,0,1.19,4.16,4.12,4.12,0,0,0,3.33,1.33,8.54,8.54,0,0,0,1.39-.07,10.22,10.22,0,0,0,1.23-.22,9.5,9.5,0,0,0,1.15-.35c.37-.14.74-.3,1.13-.48V68c-.4.18-.78.35-1.15.48a9.6,9.6,0,0,1-1.16.34,10.46,10.46,0,0,1-1.23.19Q211.42,69.07,210.68,69.07ZM210,54.61a3.28,3.28,0,0,0-2.65,1.14,5.64,5.64,0,0,0-1.13,3.33h7.2a8,8,0,0,0-.19-1.83,4.34,4.34,0,0,0-.62-1.41,2.91,2.91,0,0,0-1.06-.91A3.62,3.62,0,0,0,210,54.61Z"/>
        <path d="M229.89,68.78V58.42a4.54,4.54,0,0,0-.77-2.86,2.94,2.94,0,0,0-2.41-1,4.72,4.72,0,0,0-2,.38,3.16,3.16,0,0,0-1.3,1.13,5,5,0,0,0-.7,1.83,12.21,12.21,0,0,0-.22,2.49v8.34h-2.66v-16H222l.38,2.17h.14a5.09,5.09,0,0,1,.87-1.09A4.69,4.69,0,0,1,224.5,53a5.22,5.22,0,0,1,1.27-.46,7.1,7.1,0,0,1,1.38-.14,5.35,5.35,0,0,1,4,1.4,6.27,6.27,0,0,1,1.35,4.47v10.5Z"/>
        <path d="M241.86,66.89h.59l.64-.08a3.45,3.45,0,0,0,.56-.1l.39-.1v2a4.68,4.68,0,0,1-.48.18c-.21.06-.43.11-.65.15s-.47.08-.73.1h-.74a5.71,5.71,0,0,1-1.69-.24,3.07,3.07,0,0,1-1.34-.8,3.88,3.88,0,0,1-.89-1.55A8.13,8.13,0,0,1,237.2,64V54.7h-2.27V53.51l2.27-1.14L238.35,49h1.53v3.69h4.05v2h-4.05V64a4,4,0,0,0,.47,2.14A1.64,1.64,0,0,0,241.86,66.89Z"/>
        <path d="M253.74,52.4h.95a5.62,5.62,0,0,1,.91.1l-.36,2.5-.84-.13a7.34,7.34,0,0,0-.81,0,3.82,3.82,0,0,0-1.69.37,3.89,3.89,0,0,0-1.31,1.07,5.28,5.28,0,0,0-.85,1.67,7.18,7.18,0,0,0-.3,2.16v8.67h-2.66V52.69h2.16l.33,3h.11c.25-.42.51-.83.79-1.22a5.52,5.52,0,0,1,.93-1,4.39,4.39,0,0,1,1.17-.72A3.91,3.91,0,0,1,253.74,52.4Z"/>
        <path d="M264.36,69.07a7.78,7.78,0,0,1-2.94-.54,6.22,6.22,0,0,1-2.3-1.59,7.11,7.11,0,0,1-1.48-2.57,10.82,10.82,0,0,1-.53-3.52,12,12,0,0,1,.48-3.56A8.11,8.11,0,0,1,259,54.63,5.85,5.85,0,0,1,261.06,53a6.71,6.71,0,0,1,5.31,0,5.56,5.56,0,0,1,2,1.46,6.62,6.62,0,0,1,1.24,2.27,9.73,9.73,0,0,1,.43,2.94v1.66H259.86a6.7,6.7,0,0,0,1.2,4.16,4.1,4.1,0,0,0,3.33,1.33,8.36,8.36,0,0,0,1.38-.07,10.22,10.22,0,0,0,1.23-.22,9,9,0,0,0,1.15-.35c.37-.14.75-.3,1.13-.48V68a11.61,11.61,0,0,1-1.15.48,9.45,9.45,0,0,1-1.15.34,10.31,10.31,0,0,1-1.24.19Q265.11,69.07,264.36,69.07Zm-.66-14.46a3.29,3.29,0,0,0-2.64,1.14,5.72,5.72,0,0,0-1.14,3.33h7.21a8,8,0,0,0-.2-1.83,4.11,4.11,0,0,0-.61-1.41,2.93,2.93,0,0,0-1.07-.91,3.62,3.62,0,0,0-1.55-.32Z"/>
        <path d="M20.31,11.65c6.37,10.43,14.35,23.5,19.24,34.62C42.18,43.2,46.33,38.63,50,34.93V9H18.7Z"/>
        <path d="M40.86,49.37a44.78,44.78,0,0,1,3,10.45c.46,3.45-.19,6.47-1.78,8.28a4.71,4.71,0,0,1-3.6,1.68A5,5,0,0,1,34.92,68a9.64,9.64,0,0,1-2.3-7.33,22.91,22.91,0,0,1,4.8-11.8C32.72,37.74,24.36,24,17.75,13.21L15.19,9H0V74H50V39.23C46.46,42.93,42.85,47,40.86,49.37Z"/>
        <path d="M37.11,66a2.24,2.24,0,0,0,1.38.83,1.78,1.78,0,0,0,1.35-.67c1-1.12,1.39-3.39,1.06-5.91a38.16,38.16,0,0,0-2.16-8,18.94,18.94,0,0,0-3.13,8.68A6.84,6.84,0,0,0,37.11,66Z"/>
        <circle cx="55.5" cy="34.5" r="2.5"/>
        <path d="M18,3a3,3,0,1,1-3-3A3,3,0,0,1,18,3Z"/>
    </symbol>

    <symbol id="logo-floe" viewBox="0 0 746 241">
        <path d="M144.6,0.2h-24.1H96.4C43.4,0.2,0,43.6,0,96.6v24.1v24.1v96.4h96.4h24.1h24.1c53,0,96.4-43.4,96.4-96.4v-24.1V96.6V0.2
            H144.6z M192.8,106.3v14.5v14.5c0,31.8-26,57.8-57.8,57.8h-14.5H106H48.2v-32.5h0.2c1.1-5.5,6-9.6,11.8-9.6l40.7-4.6l30.6-39.6
            l-71.4,5.7c-6,0-11-4.5-11.9-10.3c2.2-29.8,27.3-53.6,57.7-53.6h14.5h14.5h57.8V106.3z"/>
        <g>
            <path d="M390.2,124.6h-28.3v109.8h-38.9V124.6h-21.2v-19.5l21.2-8.9V86.1c0-8.9,2.3-17.3,4.5-23.2c2.2-5.8,5.2-10.5,9.2-14
                c4-3.5,8.8-6,14.4-7.4c5.6-1.5,12-2.2,19-2.2c7.6,0,14.1,0.6,19.3,1.8c5.2,1.2,9.7,2.6,13.3,4l-9,27.9c-2.6-0.9-5.3-1.7-8.1-2.5
                c-2.8-0.7-6.1-1.1-10-1.1c-5,0-8.5,1.6-10.5,4.8c-2,3.2-3,7.3-3,12.3l-0.3,9.8h28.3V124.6z"/>
            <path d="M453.9,234.4H415V39.7h38.9V234.4z"/>
            <path d="M603.2,162.9c0,11.6-1.5,21.9-4.4,30.9c-2.9,9-7.2,16.5-12.7,22.7c-5.5,6.1-12.2,10.8-20.2,14
                c-7.9,3.2-16.8,4.8-26.7,4.8c-9.2,0-17.7-1.6-25.4-4.8c-7.7-3.2-14.4-7.9-20-14c-5.6-6.1-10-13.7-13.1-22.7
                c-3.2-9-4.7-19.3-4.7-30.9c0-11.5,1.5-21.8,4.4-30.7c2.9-9,7.2-16.5,12.7-22.6c5.5-6.1,12.2-10.7,20.1-13.9
                c7.9-3.2,16.8-4.7,26.8-4.7c9.2,0,17.7,1.6,25.4,4.7c7.7,3.2,14.4,7.8,20,13.9c5.6,6.1,10,13.6,13.1,22.6
                C601.6,141.2,603.2,151.4,603.2,162.9z M514.8,162.9c0,13.9,2,24.3,5.8,31.3c3.9,7,10.3,10.5,19,10.5c8.7,0,15-3.5,18.9-10.6
                c3.9-7.1,5.8-17.5,5.8-31.2c0-13.9-2-24.2-5.8-31.1c-3.9-6.8-10.3-10.3-19.2-10.3c-8.7,0-15,3.4-18.9,10.3
                C516.7,138.7,514.8,149.1,514.8,162.9z"/>
            <path d="M691.1,235.3c-10,0-19.1-1.5-27.5-4.4c-8.4-2.9-15.6-7.3-21.7-13.1c-6.1-5.8-10.8-13.2-14.1-22.2
                c-3.4-8.9-5-19.4-5-31.4c0-12.2,1.5-22.9,4.6-32s7.4-16.7,12.9-22.8c5.5-6.1,12.2-10.7,19.9-13.8c7.8-3.1,16.4-4.6,25.8-4.6
                c9.2,0,17.5,1.4,25,4.2c7.4,2.8,13.7,6.9,18.9,12.3c5.2,5.4,9.2,12,11.9,19.9s4.2,16.8,4.2,26.9v18.4h-84.9
                c0.2,5.3,1,10.1,2.6,14.4c1.5,4.3,3.7,7.9,6.5,10.8c2.8,2.9,6.1,5.2,10.1,6.8c3.9,1.6,8.4,2.4,13.5,2.4c4.2,0,8.2-0.2,12-0.7
                c3.8-0.5,7.4-1.1,11-2.1c3.6-0.9,17.6-5.2,21.3-7.1v28.2c-3.3,1.7-6.7,3.2-10,4.4c-3.4,1.2-6.9,2.2-10.6,3
                c-3.7,0.8-7.8,1.4-12.1,1.8C701,235.1,696.3,235.3,691.1,235.3z M686.3,118c-6.7,0-12.3,2.4-16.7,7.1c-4.4,4.7-7,12.2-7.7,22.3
                h48.4c-0.1-4.2-0.6-8.1-1.6-11.7c-1-3.6-2.5-6.7-4.5-9.3s-4.5-4.7-7.5-6.2C693.7,118.8,690.2,118,686.3,118z"/>
        </g>
    </symbol>

    <symbol id="logo-hewlett" viewBox="0 0 599.91 127.9">
        <path d="M53.3,127.9h3.9v-25h34V99H53.3Zm-9.7,0h3.9V75.1h5.8V93.3H91.1V89.4h-34V75.1h34V71.2h-34V65.4h34V61.5H43.6Zm3.8-62.4h5.8v5.8H47.4Zm65-14.8,2.6-9.9,2.6,9.9h2.7L125,34.1h-3.2L119,44.8l-2.7-10.7H114l-2.8,10.7-2.7-10.7h-3.2L110,50.7Zm24.3-16.6h-3.1V50.7h3.1Zm17.9,13.7h-5.5V34.1H146V50.7h8.6Zm16.7,0h-5.5V34.1h-3.1V50.7h8.6Zm11.2-13.7h-3.1V50.7h3.1ZM195.1,46h5.1l1.8,4.7h3.3l-6.2-16.3-.1-.3h-2.6L190,50.7h3.3l1.8-4.7Zm2.6-7.3,1.5,4.4h-3Zm24.2,6.8-4.5-11.4h-4.3V50.7h3.1V39l4.7,11.7h1.9l4.7-11.8V50.7h3.1V34.1h-4.3l-4.4,11.4Zm54.5-1.7h5.7v-3h-5.7V36.9h5.7V34h-8.8V50.6h3.1V43.8Zm17.9-9.7h-3.1V50.7h8.6v-3h-5.5Zm30,8.3a8.6,8.6,0,1,0-8.6,8.6A8.6,8.6,0,0,0,324.3,42.4Zm-14.1,0a5.5,5.5,0,1,1,5.5,5.6,5.5,5.5,0,0,1-5.5-5.6Zm33.6,8.3-4.5-6a4.93,4.93,0,0,0,4.2-5.2,5.43,5.43,0,0,0-1.6-4c-1-1-2.4-1.4-4.5-1.4h-5.3V50.7h3.1V44.1l4.7,6.5h3.9Zm-8.6-8.5V37h2c2.3,0,3.1,1.3,3.1,2.6,0,1.8-1.3,2.7-4,2.7h-1.1ZM356.7,46h5.1l1.8,4.7h3.3l-6.2-16.3-.1-.3H358l-6.3,16.6H355Zm2.6-7.3,1.5,4.4h-3ZM134.7,80.5H114.3V62.6h-4.7v40.5h4.7V84.8h20.4v18.3h4.7V62.6h-4.7Zm25.1-8a16.31,16.31,0,0,0-15.9,16.1c0,8.8,7.1,15.3,15.9,15.3,6.8,0,12.8-3.6,15-10l.1-.4h-4.7l-.1.2a11,11,0,0,1-10.5,6.9c-5.7,0-10.9-4.8-11.3-10.3h27.3V90a16.18,16.18,0,0,0-2.3-9.6,15.35,15.35,0,0,0-13.5-7.9ZM148.5,86.2a11.41,11.41,0,0,1,11.3-9.6,11.61,11.61,0,0,1,11.4,9.6Zm58,11.7-6.8-21h-3.8l-6.7,21L180,73.4l-.1-.2h-4.7l11.6,29.7.1.2h4.8l6.1-18.7,6.2,18.7h4.8l11.7-29.9h-4.6Zm17.4,5.2h4.4V62.6h-4.4Zm24.3-30.6a16.31,16.31,0,0,0-15.9,16.1c0,8.8,7.1,15.3,15.9,15.3,6.8,0,12.8-3.6,15-10l.1-.4h-4.7v.2a11,11,0,0,1-10.5,6.9c-5.7,0-10.9-4.8-11.3-10.3h27.4V90a16.18,16.18,0,0,0-2.3-9.6,15.83,15.83,0,0,0-13.7-7.9ZM236.9,86.2a11.41,11.41,0,0,1,11.3-9.6,11.61,11.61,0,0,1,11.4,9.6Zm54.7-23.5h-4.4V73.3h-12V62.7h-4.4V73.3h-6.3v4.1h6.3v25.8h4.4V77.3h12v25.8h4.4V77.3h7.2V73.2h-7.2Zm236.5,40.4h4.4V72.5h-4.4ZM516.5,61.9h-4.4V72.5h-6.3v4.1h6.3v26.6h4.4V76.6h7.2V72.5h-7.2Zm79.6,13.6c-2.6-2.6-5.6-3.7-9.7-3.7a11.18,11.18,0,0,0-9,4.1V72.6H573v30.6h4.4V86.3c-.1-3.4.9-6.3,2.7-8a9.19,9.19,0,0,1,12.6,0c1.8,1.7,2.8,4.6,2.8,8v16.8h4.4V86.3C600,81.7,598.6,77.9,596.1,75.5Zm-68-6.1h4.4V61.9h-4.4Zm-30.4,7.9c-3.6-5-9.2-5.5-11.5-5.5a16.06,16.06,0,1,0-1.13,32.1h1.13a14.4,14.4,0,0,0,11.5-5.5v4.8h4.4V72.6h-4.4ZM486.2,99.8a11.7,11.7,0,0,1-12-11.39V87.9c0-7.9,6-12.1,12-12.1a11.85,11.85,0,0,1,11.7,12h0a11.66,11.66,0,0,1-11.31,12Zm67-28a16,16,0,1,0,16,16,16.06,16.06,0,0,0-16-16Zm.1,28A11.72,11.72,0,0,1,541.7,88a11.85,11.85,0,0,1,11.57-12.1h0a11.71,11.71,0,0,1,11.6,11.8A11.9,11.9,0,0,1,553.3,99.8Zm-201.5-28a16,16,0,1,0,16.05,16A16.06,16.06,0,0,0,351.8,71.8Zm.1,28A11.72,11.72,0,0,1,340.3,88a11.85,11.85,0,0,1,11.57-12.1h0a11.71,11.71,0,0,1,11.6,11.8,11.85,11.85,0,0,1-11.57,12.1ZM312,103.1h4.7V84.5h15.9V80.3H316.7V66.2h16.5V61.9H312.1l-.1,41.2ZM462.1,77.2c-3.9-5-9.8-5.4-11.5-5.4a16.06,16.06,0,1,0-1.13,32.1h1.13a14.68,14.68,0,0,0,11.5-5.5v4.8h4.4V62h-4.4ZM450.7,99.8a11.7,11.7,0,0,1-12-11.39V87.9c0-7.9,6-12.1,12-12.1a11.85,11.85,0,0,1,11.7,12h0A11.73,11.73,0,0,1,451,99.8ZM393.9,88.7c0,5.3-1.4,7.2-3.1,8.8a8.14,8.14,0,0,1-6.1,2.3,9,9,0,0,1-6.8-2.7c-1.4-1.8-2.1-4.3-2.1-7.7V72.6h-4.4V89.5c0,4.3.9,7.7,2.7,9.9,1.4,1.7,4.6,4.6,10.6,4.6,5.6,0,8.3-3,9.4-4.7v4h4.2V72.7h-4.4v16Zm23.3-16.9a11.18,11.18,0,0,0-9,4.1V72.6h-4.4v30.6h4.4V86.3c-.1-3.4.9-6.3,2.7-8a9.19,9.19,0,0,1,12.6,0c1.8,1.7,2.8,4.6,2.8,8v16.8h4.4V86.3c0-4.7-1.3-8.3-3.8-10.8A12.89,12.89,0,0,0,417.2,71.8Z" transform="translate(0 0)"/>
        <path d="M0,71.2H3.9V.1H0ZM53.3,31H47.5V0H43.7V31H13.3V0H9.4V34.8H43.6v5.8H9.6V71.1h3.9V44.4H43.7V61.5h3.9v-17h5.8V61.6h3.9V.1H53.4V31Zm0,9.7H47.5V34.9h5.8Zm199.9.2V36.6h-3v4.3h-4.3V44h4.3v4.3h3.1V44h4.3V40.9Z" transform="translate(0 0)"/>
    </symbol>

    <symbol id="logo-ocadu" viewBox="0 0 159.5 132.9">
        <path d="M4.1 7.9c-.6 0-1.1-.1-1.6-.3-.5-.2-1-.5-1.3-.8C.8 6.4.5 6 .3 5.5.1 5 0 4.5 0 4c0-1.1.4-2.1 1.2-2.8.4-.4.8-.7 1.3-.9 1.1-.4 2.2-.4 3.3 0 .5.2.9.5 1.3.8.4.4.7.8.9 1.3.2.5.3 1 .3 1.5C8.2 5 7.8 6 7 6.8c-.3.3-.8.6-1.3.8-.5.2-1 .3-1.6.3zm0-1.9c.3 0 .6 0 .8-.1.2-.1.4-.3.6-.4.2-.3.3-.5.4-.7.1-.3.2-.5.2-.8 0-.3 0-.5-.1-.8-.2-.3-.3-.5-.5-.7-.2-.2-.4-.3-.6-.4-.3-.1-.5-.2-.8-.2-.3 0-.5.1-.8.2-.5.2-.8.6-1 1.1-.1.2-.1.5-.1.7 0 .3 0 .5.1.8.1.3.2.5.4.7.2.2.4.3.6.5.3.1.5.1.8.1zM13.4 7.9c-.5 0-1-.1-1.5-.3-.5-.2-.9-.5-1.2-.8-.8-.7-1.2-1.7-1.2-2.8 0-1.1.4-2.1 1.1-2.8.4-.4.8-.7 1.3-.8.5-.3 1.1-.4 1.6-.4.4 0 .7 0 1.1.1l.9.3c.3.1.5.3.7.5l.6.6-1.6 1.2c-.2-.3-.4-.5-.7-.7-.3-.2-.6-.2-.9-.2-.3 0-.5.1-.7.2-.2.1-.4.2-.6.4-.2.2-.3.4-.4.6-.1.3-.1.5-.1.8 0 .3 0 .5.1.8 0 .4.1.6.3.8.2.2.4.3.6.4.2.2.5.2.7.2.2 0 .4 0 .5-.1.2 0 .3-.1.4-.2.1-.1.3-.2.4-.3l.4-.4 1.6 1.1c-.2.2-.4.5-.6.7-.2.2-.5.4-.7.5-.3.2-.6.3-.9.4-.4.2-.8.2-1.2.2zM20.8.1h2l3.3 7.7h-2.3l-.6-1.4h-2.9l-.5 1.4h-2.2L20.8.1zm1.8 4.7l-.9-2.2-.9 2.2h1.8zM27.3.2h2.9c.6 0 1.2.1 1.8.3.5.2 1 .4 1.4.8.4.3.7.7.8 1.2.2.5.3 1 .3 1.5s-.1 1-.3 1.5c-.2.5-.5.9-.9 1.2-.3.4-.8.6-1.3.8-.6.2-1.2.3-1.8.3h-2.9V.2zm2.9 5.7c.6 0 1.1-.2 1.5-.5.5-.4.7-.9.6-1.4 0-.5-.2-1.1-.6-1.4-.4-.4-1-.5-1.5-.5h-.9V6l.9-.1zM3.7 20c-.5 0-1-.1-1.5-.2-.4-.1-.8-.3-1.1-.6-.3-.3-.6-.7-.7-1.1-.2-.5-.3-1-.2-1.6v-4.3h2.2v4.2c0 .4.1.9.4 1.2.3.3.6.4 1 .4s.7-.1 1-.4c.3-.3.4-.8.4-1.2v-4.3h2.2v4.2c-.1.7-.2 1.2-.4 1.7-.3.8-1 1.5-1.8 1.7-.5.2-1 .3-1.5.3zM9.2 12.2h2l3.1 4v-4h2.1v7.6h-1.9l-3.3-4.2v4.2h-2v-7.6zM18.4 12.2h2.1v7.6h-2.1v-7.6zM21.8 12.2h2.4l1.7 4.8 1.7-4.8h2.3l-3.1 7.7h-2l-3-7.7zM31.1 12.2h6.1V14h-4v1.2h3.7v1.7h-3.7V18h4.1v1.8h-6.2v-7.6zM39.1 12.2h3.6c.5 0 1 .1 1.5.2.4.1.7.3 1 .6.5.5.7 1.1.7 1.8 0 .5-.1 1-.4 1.5-.3.4-.7.7-1.1.9l1.8 2.7h-2.4l-1.5-2.3h-.9v2.3h-2.1l-.2-7.7zm3.5 3.7c.3 0 .6-.1.8-.2.2-.2.3-.4.3-.7 0-.3-.1-.5-.3-.7-.2-.2-.5-.2-.8-.2h-1.4v1.8h1.4zM50.5 20c-.7 0-1.3-.1-1.9-.3-.6-.2-1.2-.5-1.6-1l1.2-1.4c.7.6 1.6.9 2.5.9.2 0 .4 0 .6-.1.1-.1.2-.2.2-.4 0-.1 0-.1-.1-.2l-.2-.2c-.1-.1-.3-.1-.4-.2-.2-.1-.4-.1-.6-.2-.4-.1-.8-.2-1.1-.3-.3-.1-.6-.2-.9-.4-.6-.4-.9-1-.8-1.6 0-.3.1-.7.2-1 .1-.3.3-.6.6-.8.3-.2.6-.4.9-.5.4-.1.8-.2 1.2-.2.6 0 1.2.1 1.8.3.5.2 1 .4 1.4.8l-1.1 1.5c-.3-.2-.7-.4-1.1-.6-.3-.1-.7-.2-1.1-.2-.2 0-.4 0-.6.1-.1.1-.2.2-.2.3 0 .1 0 .2.1.2l.2.2c.1.1.3.1.4.2.2.1.4.1.6.2l1.2.3c.3.1.6.3.9.5.2.2.4.4.6.7.1.3.2.6.2.9 0 .4-.1.7-.2 1-.1.3-.4.6-.6.8-.3.2-.6.4-1 .5-.5.1-.9.2-1.3.2zM55.2 12.2h2.1v7.6h-2.1v-7.6zM61 14.1h-2.3v-1.9h6.7v1.9h-2.3v5.8H61v-5.8zM69.2 17l-2.9-4.8h2.4l1.6 2.8 1.6-2.8h2.4l-3 4.8v2.9h-2.1V17z" transform="translate(74.132 12.228)"/>
        <path d="M159.5 0H62.1v31.3H0v66.1h62.1v35.5h39.5V97.4h57.8V0zM62.1 93.3H4v-58h58.1v58zm35.6 35.5H66.1V97.4h31.6v31.4zm57.7-35.5H66.1V4.1h89.3v89.2z"/>
        <path d="M28.6 54.9c.4-1 .6-2.1.6-3.2s-.2-2.2-.6-3.2c-.4-1-1-1.8-1.8-2.6-.8-.7-1.7-1.3-2.7-1.7-2.2-.8-4.6-.8-6.7 0-1 .4-1.9 1-2.7 1.7-1.6 1.5-2.4 3.6-2.4 5.8 0 1.1.2 2.2.6 3.1.4 1 1 1.8 1.8 2.6.8.7 1.7 1.3 2.7 1.7 2.2.9 4.6.9 6.7 0 1-.4 1.9-1 2.7-1.7.8-.7 1.4-1.6 1.8-2.5zm-3.5-3.2c0 .6-.1 1.1-.3 1.7-.2.5-.5 1-.8 1.4-.4.4-.8.7-1.3 1-.5.2-1.1.4-1.7.4-.6 0-1.2-.1-1.7-.4-.5-.2-1-.6-1.3-1-.4-.4-.7-.9-.9-1.4-.2-.5-.3-1.1-.3-1.7 0-.6.1-1.1.3-1.7.4-1 1.2-1.9 2.2-2.4.5-.2 1.1-.4 1.7-.4.6 0 1.2.1 1.7.4 1 .5 1.8 1.3 2.2 2.4.1.6.2 1.1.2 1.7zM51.6 57.7c.4-.4.8-.8 1.1-1.3l-3.1-2.2c-.2.2-.4.5-.7.7-.3.2-.5.4-.8.6-.3.2-.6.3-1 .4-.4.1-.8.1-1.2.1-.5 0-1.1-.1-1.6-.3-.5-.2-.9-.5-1.2-.9-.4-.4-.6-.9-.8-1.4-.2-.6-.3-1.1-.3-1.7 0-.6.1-1.1.3-1.7.2-.5.5-1 .8-1.4.3-.4.8-.7 1.2-.9.5-.2 1-.3 1.6-.3.7 0 1.4.2 2 .5.6.3 1 .8 1.4 1.3l3.1-2.4c-.3-.4-.7-.8-1.1-1.2-.9-.8-2.1-1.4-3.3-1.7-.7-.2-1.5-.2-2.2-.2-1.1 0-2.3.2-3.3.6-1 .4-1.9 1-2.6 1.7-1.5 1.5-2.4 3.6-2.3 5.8 0 2.2.8 4.3 2.4 5.8.7.7 1.6 1.3 2.6 1.7 1 .4 2.1.6 3.2.6.8 0 1.6-.1 2.3-.3.7-.2 1.3-.4 1.9-.7.7-.4 1.2-.7 1.6-1.2zM52.9 79.7c.4-1 .6-2.1.6-3.1 0-1.1-.2-2.1-.6-3.1-.4-.9-1-1.8-1.7-2.4-.8-.7-1.7-1.3-2.8-1.6-1.2-.4-2.5-.6-3.8-.6h-6v15.6h5.9c1.3 0 2.6-.2 3.8-.6 1-.4 2-.9 2.8-1.6.8-.8 1.4-1.7 1.8-2.6zm-3.6-3.1c.1 1.2-.4 2.3-1.3 3.1-.9.8-2.1 1.1-3.3 1.1h-1.9v-8.4h1.9c1.2-.1 2.4.3 3.3 1.1.9.8 1.4 1.9 1.3 3.1zM88.2 117.2c.4-1 .5-2 .5-3.1v-8.2h-4v8.3c.1.9-.2 1.8-.8 2.4-.6.5-1.3.8-2.1.8s-1.5-.3-2.1-.8c-.6-.7-.9-1.6-.8-2.5v-8.2h-4v8.3c0 1 .1 2 .5 3 .3.8.7 1.5 1.3 2.1.6.6 1.3 1 2.1 1.2 1.9.5 3.9.5 5.7 0 1.8-.4 3.2-1.7 3.7-3.3zM24.1 81.9l1 2.5h4.4l-6.7-15.7h-4.1L12 84.4h4.3l1-2.5h6.8zm-3.3-8.4l2.1 5.3h-4.2l2.1-5.3z"/>
    </symbol>

    <!-- Banner -->

    <symbol id="site-banner" height="171" width="1920" viewBox="960 0 1920 171">
        <mask id="mask0_355_863" style="mask-type:alpha" maskUnits="userSpaceOnUse" x="967" y="0" width="1926" height="171">
            <rect x="967.814" y="0.0643311" width="1925.19" height="169.99" fill="#C4C4C4"/>
        </mask>
        <g mask="url(#mask0_355_863)">
            <path d="M4199.04 -129.234H-43.9858V226.519H4199.04V-129.234Z" fill="#158DCD"/>
            <path d="M2032.98 226.603C1986.15 170.43 1960.56 99.5865 1960.66 26.4541C1960.38 -28.1992 1974.65 -81.9429 2002.01 -129.255H2545.6C2573.1 -82.0014 2587.39 -28.2184 2586.95 26.4541C2587.04 99.5947 2561.42 170.44 2514.57 226.603" fill="white"/>
            <path d="M2655.5 -129.171H2289.08V155.167H2655.5V-129.171Z" fill="#0B1523"/>
            <path d="M2885.85 -129.171H2238.37V184.604H2885.85V-129.171Z" fill="#10527A"/>
            <path d="M1818.99 228.56C1787.95 171.978 1774.76 107.331 1781.15 43.1132C1787.53 -21.1046 1813.19 -81.889 1854.76 -131.254H2330.66C2372.23 -81.889 2397.89 -21.1046 2404.27 43.1132C2410.66 107.331 2397.47 171.978 2366.43 228.56" fill="#12699A"/>
            <path d="M1433.02 -129.171C1441.53 -97.2747 1442.59 -63.8489 1436.13 -31.4762C1429.66 0.896545 1415.84 31.3494 1395.73 57.5293C1375.62 83.7092 1349.76 104.915 1320.15 119.508C1290.54 134.102 1257.97 141.691 1224.96 141.691C1191.95 141.691 1159.38 134.102 1129.76 119.508C1100.15 104.915 1074.29 83.7092 1054.18 57.5293C1034.07 31.3494 1020.25 0.896545 1013.79 -31.4762C1007.32 -63.8489 1008.39 -97.2747 1016.9 -129.171" fill="#B3AE56"/>
            <path d="M2787.24 226.519C2763.79 164.594 2760.55 96.8342 2777.98 32.9521C2795.41 -30.9299 2832.62 -87.6532 2884.27 -129.086H3275.83C3327.51 -87.6463 3364.73 -30.9047 3382.16 32.9993C3399.59 96.9034 3396.34 164.686 3372.86 226.624" fill="#12699A"/>
            <path d="M2365.78 -131.275C2446.47 -100.175 2503.73 -19.7535 2503.73 71.8412C2503.76 100.722 2497.97 129.314 2486.71 155.906C2475.44 182.497 2458.92 206.543 2438.14 226.603H2138.65C2117.88 206.543 2101.36 182.497 2090.09 155.906C2078.82 129.314 2073.03 100.722 2073.07 71.8412C2073.07 -19.7956 2130.32 -100.175 2211.02 -131.275H2365.78Z" fill="#538C8A"/>
            <path d="M2503.73 70.8943C2503.73 131.642 2478.58 188.602 2438.14 227.761H2138.65C2098.21 188.602 2073.07 131.642 2073.07 70.8943" fill="#538C8A"/>
            <path opacity="0.3" d="M2070.18 226.603C2102.7 174.207 2148.04 130.974 2201.93 100.994C2255.81 71.014 2316.46 55.2797 2378.12 55.2797C2439.78 55.2797 2500.43 71.014 2554.31 100.994C2608.2 130.974 2653.54 174.207 2686.06 226.603" fill="#158DCD"/>
            <path opacity="0.3" d="M1244.65 226.519C1226.54 192.011 1214.84 150.495 1214.84 108.791C1214.84 55.5373 1231.92 3.68857 1263.57 -39.1415C1295.21 -81.9716 1339.76 -113.526 1390.66 -129.171H1536.65C1571.8 -118.36 1604.12 -99.8995 1631.29 -75.1139C1658.46 -50.3284 1679.8 -19.8333 1693.79 14.1807C1707.77 48.1946 1714.05 84.8834 1712.17 121.611C1710.29 158.34 1700.29 194.195 1682.91 226.603" fill="#ECDD65"/>
        </g>
        <rect x="2893" y="0.0643311" width="967.349" height="169.99" fill="#12699A"/>
        <rect x="0.651367" y="0.0643311" width="967.349" height="169.99" fill="#158DCD"/>
    </symbol>
</svg>
