<svg viewBox="0 0 1000 1000" xmlns="http://www.w3.org/2000/svg">
  <style>
    @media (prefers-color-scheme: dark) { .i { fill: #fc0; } }
  </style>
  <path fill="#008CBA" d="M953.12 258.89a103.31 103.31 0 0113.5 39.5 92.6 92.6 0 01-3.5 39.5 96.24 96.24 0 01-18 36.5 126 126 0 01-32 28.5l-212 125 185 162a120 120 0 0125.5 34 111.73 111.73 0 0111.5 39 117.81 117.81 0 01-5 40.5 96.7 96.7 0 01-20 35.5 95.07 95.07 0 01-33 24.5 108.39 108.39 0 01-116-17.5l-185-163-97 226a106.7 106.7 0 01-24.5 34.5 120.68 120.68 0 01-33.5 22.5 100.9 100.9 0 01-39.5 8 108.27 108.27 0 01-40.5-8 104.47 104.47 0 01-34-24 99.87 99.87 0 01-21-34 108.6 108.6 0 01-6.5-40.5 106.14 106.14 0 019.5-41.5l97-225-244-24a110.75 110.75 0 01-73-37 111.94 111.94 0 01-19.5-35.5 97.24 97.24 0 01-4.5-40.5 98.57 98.57 0 0112-39 105.67 105.67 0 0126-31 103.65 103.65 0 0136-19 110.2 110.2 0 0142-4l244 23-53-238a110.19 110.19 0 01-1.5-43 98.94 98.94 0 0114.5-38 101.12 101.12 0 0126.5-29.5 88.77 88.77 0 0137.5-16.5 97 97 0 0179 15 105.32 105.32 0 0129 28 108.62 108.62 0 0117 39l54 239 212-125a101 101 0 0140-15 105.87 105.87 0 0141 2 111.25 111.25 0 0136 17 100.48 100.48 0 0128 30z"/>
</svg>